<svg id="y" xmlns="http://www.w3.org/2000/svg" viewBox="0 0 96 96"><defs><style>.cls-1{fill:#fff200;}</style></defs><title>y</title><path class="cls-1" d="M76.24,72.91c-.11.1-.16.11-.18.1-.4-.31-.79-.63-1.2-.93a6,6,0,0,1-.55-.5.59.59,0,0,0-.13-.1.09.09,0,0,0-.14.08.38.38,0,0,0,.07.23c.24.38.52.73.78,1.1l.42.62s.06.06,0,.08c-.08.17.1.23.17.32.25.36.39.79.62,1.16.06.09-.06.23.08.31s.11.16.15.25c.12.34.28.65.38,1a5.75,5.75,0,0,0,.35.85c0,.08,0,.07,0,.09a.2.2,0,0,0-.1.08.09.09,0,0,0,0,.09.1.1,0,0,0,.08,0,.22.22,0,0,0,.1,0s0-.15.06,0a4.79,4.79,0,0,0,.49.79c.14.2.14.23,0,.45s-.17.28-.07.49-.17.59-.42.66a.11.11,0,0,1-.09-.06c0-.13-.09-.07-.16,0s0,.26-.2.29-.18.15-.26.24-.12.09-.11.18,0,0-.1,0-.14,0-.16.12,0,.06.07.07.12,0,.12.07a2.63,2.63,0,0,0,.25,1c.12.35.29.67.38,1,0,.06,0,.14,0,.17s0,.16.09.16a.08.08,0,0,1,.05.06.81.81,0,0,0,.12.41c.07.13.16.24.23.37a2.93,2.93,0,0,1,.24.53.52.52,0,0,1-.41.61,1,1,0,0,0-.77.71c-.07.22-.07.22-.27.22h-.17c-.14,0-.14,0-.1.16a.2.2,0,0,1-.13.27.56.56,0,0,1-.57-.06c-.29-.26-.65-.44-.93-.71s-.31-.25-.47-.38a2.94,2.94,0,0,0-.6-.3l-.12,0c-.07,0-.12,0-.09.09s0,.21.09.35c0,0-.09-.09-.1-.08a.47.47,0,0,0-.12.1s.05.06.08.07.08,0,.14-.09.08.21.12.34c.13.35.29.69.4,1.05a5.51,5.51,0,0,0,.24.79s0,.07,0,.1-.09,0-.13.08a.07.07,0,0,0,0,.12H74s.07,0,.07,0c0,.21.05.42.06.63,0,0-.08.08-.14.12a.24.24,0,0,1,0-.09c0-.09,0-.11-.11-.1s-.09,0-.09.09.06.11.19.11a2.74,2.74,0,0,1-.54.66c-.11.12-.09,0-.12,0s-.07-.28-.21-.34-.07,0-.1,0,0,0,0,.06a1,1,0,0,1,.06.24c0,.06-.12.11,0,.19s0,.05,0,.05-.17.08-.19.15a.26.26,0,0,1-.29.19c-.14,0-.28.08-.43.07s-.25,0-.29,0a1.9,1.9,0,0,1-.25-.26s-.17-.16,0-.19a1.43,1.43,0,0,0,0-.17.48.48,0,0,0-.17,0s0,.14-.08,0a2.62,2.62,0,0,0-.5-.55c-.08-.08-.06-.12,0-.2s0-.16-.08-.12-.15,0-.24,0a4.39,4.39,0,0,1-.55-.49c-.08-.08,0-.06,0-.08s0-.07,0-.1a.07.07,0,0,0-.11-.07c-.14.09-.14.09-.23,0l-.51-.51c-.08-.08-.06-.1,0-.1s0-.07,0-.11-.06-.11-.1-.07l-.09.09a.08.08,0,0,1-.14,0c-.08-.09-.17-.18-.26-.26a1.76,1.76,0,0,0-.21-.14h0s0,0,0,.06.05.13.06.2,0,.14-.1.06l0,0,0,.11s.06,0,.09,0,.18,0,.19.17.12.35.14.54.08.3.11.45a3.89,3.89,0,0,0,.08.53c.06.17,0,.35.07.5s0,.35.06.5c.1.34.08.69.16,1,0,0,0,.08-.06.12s-.09.11,0,.14.13.11.14.22a4.88,4.88,0,0,0,.17.79.29.29,0,0,1-.1.32c-.1.06-.22.08-.29.18-.27,0-.46.26-.74.29a.56.56,0,0,1-.41-.08l-.49-.49a.1.1,0,0,0-.09,0,.09.09,0,0,0,0,.08.85.85,0,0,0,0,.25c0,.1.12.19.16.3s0,.24.07.34,0,.09-.07.13l-.09,0a2.74,2.74,0,0,1-.56-.49l0,0a.19.19,0,0,0,0,.06c0,.07,0,.13,0,.2s.11.21-.05.29,0,.09.06.11.07.11,0,.18-.17.06-.2,0a6.85,6.85,0,0,1-1-1.22,2.75,2.75,0,0,0-.37-.44c-.12-.12-.09-.14.06-.13s0-.06,0-.1a.13.13,0,0,0,0-.08s-.09,0-.11,0-.12.08-.19,0-.3-.33-.44-.52,0-.17,0-.25-.07-.07-.08-.06-.12.08-.12,0c-.31-.32-.51-.73-.84-1a1.25,1.25,0,0,1-.12-.18s-.05,0-.07,0a.18.18,0,0,0-.07.07.1.1,0,0,0,0,.06,2.85,2.85,0,0,0,0,.69,4.27,4.27,0,0,1,.06.64.56.56,0,0,1-.27.54,1.17,1.17,0,0,1-.73.23.31.31,0,0,1-.1,0c-.05,0,0-.15-.11-.12s-.08.09-.12.09l-.58,0s0,0,0-.06-.07-.07-.12,0S61.07,92,61,92a.74.74,0,0,1-.63-.83c0-.11-.07-.09-.05,0s0,.12.06.1.14,0,.13-.08,0-.14-.14,0a.35.35,0,0,1-.28-.22c-.18-.36-.37-.71-.57-1.05s-.27-.55-.45-.81a.51.51,0,0,1-.14-.37.76.76,0,0,1-.27-.31c-.07-.12-.18-.21-.24-.33s-.29-.4-.38-.63-.07-.13.05-.15,0-.12,0-.16-.09,0-.13,0-.1,0-.13,0a1.43,1.43,0,0,1-.12-.18,7.38,7.38,0,0,0-.41-.79,6.24,6.24,0,0,1-.6-1.24,4.92,4.92,0,0,0-.29-.64c-.06-.1-.05-.13.07-.14s0-.1,0-.14-.08-.06-.12,0-.1,0-.11,0a3.83,3.83,0,0,1-.23-.6,5.3,5.3,0,0,0-.18-.68,6.44,6.44,0,0,0-.31-.76s0-.08,0-.22-.07-.09-.05,0,0,.12.06.1.14,0,.13-.08,0-.14-.14,0-.16-.11-.21-.22-.06,0-.09-.07,0,.06,0,.09a8.19,8.19,0,0,1,.08,1,5.37,5.37,0,0,1,.05.6,2.6,2.6,0,0,1,.07.44.82.82,0,0,0,.05.44c0,.11,0,.26,0,.39s0,.22.06.31,0,.1,0,.15,0,.08,0,.11a1.22,1.22,0,0,1,0,.71.21.21,0,0,0,0,.09,1.24,1.24,0,0,1,0,.71c0,.06.06.14.05.2s.08.41-.06.6c0,0,.06.09.06.13,0,.21.07.43,0,.64a.14.14,0,0,0,0,.09,1.11,1.11,0,0,1,0,.71.28.28,0,0,0,0,.1,10.12,10.12,0,0,1-.07,1,4,4,0,0,1-.06.4,2.1,2.1,0,0,1,0,.43c-.08.26-.13.52-.21.77a4,4,0,0,0-.18.75,1.54,1.54,0,0,0-.07.4c0,.08,0,0-.07,0a.16.16,0,0,0-.11.07s0,.09,0,.09.1.09.08.14c-.08.23-.08.47-.14.7a2.8,2.8,0,0,0,0,.74,1,1,0,0,1-.2.68,1.59,1.59,0,0,1-.51.48c-.11.06-.21.08-.32,0a.43.43,0,0,0-.51-.07,3,3,0,0,1-.77.21,1,1,0,0,0-.28.13c-.27.13-.34.1-.52-.14a1.51,1.51,0,0,1-.19-.42.9.9,0,0,0-.09-.22,1.37,1.37,0,0,1-.3-.74s0-.07-.05-.06-.12-.09-.16-.17c-.18-.42-.28-.87-.45-1.3a.82.82,0,0,0-.06-.14.08.08,0,0,0-.13,0c-.08.08-.17.14-.14.27a.15.15,0,0,1,0,.1,3,3,0,0,0-.21.88.83.83,0,0,1-.33.49c-.07,0,0,0-.06-.06a.27.27,0,0,0-.14,0s-.06.06-.06.09,0,.21-.15.17c-.18.16-.36,0-.54,0s0-.06,0-.06.06-.09.06-.15-.08-.06-.09,0a.33.33,0,0,0-.1.12s0,.07-.07,0a.82.82,0,0,0-.25,0c-.05,0-.15,0-.16,0-.12-.2-.28-.05-.42-.06s-.19,0-.27.08a.38.38,0,0,1-.34.15.44.44,0,0,1-.34-.37,7.25,7.25,0,0,0-.14-.83c-.11-.35-.12-.71-.25-1.05a.42.42,0,0,1,0-.22c0-.09.11-.19-.07-.21,0,0,0-.07,0-.11s0-.22,0-.29-.09-.18.09-.18,0-.08,0-.13,0-.06-.05-.06l-.13,0A.68.68,0,0,0,46,91c-.11-.32-.16-.66-.25-1a3.09,3.09,0,0,1-.09-.89c0-.32,0-.64-.06-1s0-.67,0-1a6.1,6.1,0,0,1-.06-.7s0,0,0,0,0,0,0,.05a.63.63,0,0,1-.11.35c0,.1,0,.22-.09.33a1.33,1.33,0,0,0-.13.37,12.54,12.54,0,0,1-.44,1.41c-.07.22-.18.44-.25.66-.12.4-.32.77-.44,1.17,0,.13-.15.23-.13.37s-.05,0-.07,0-.12,0-.16,0-.08.11,0,.14.07.06.06.08a2.13,2.13,0,0,1-.1.25c-.19.44-.4.87-.58,1.31s-.4,1-.57,1.55a1.77,1.77,0,0,1-.13.35.49.49,0,0,1-.68.24A1.08,1.08,0,0,0,41,94.9l-.36.09s-.08,0-.11,0-.27.05-.38,0a.85.85,0,0,1-.25-.49s0-.07,0-.1-.06-.14-.1-.14a.19.19,0,0,0-.15.09c-.1.17-.18.35-.27.51a3.58,3.58,0,0,1-.67.95.47.47,0,0,1-.33.16c-.06,0-.14,0-.13-.09s-.09,0-.1,0-.14.06-.21.05-.21-.08-.21-.24a1.79,1.79,0,0,0,0-.23.17.17,0,0,0-.25-.1,2.29,2.29,0,0,0-.16.16c-.18.18-.23.19-.48.08a.34.34,0,0,0-.38,0,.56.56,0,0,1-.27.07.27.27,0,0,1-.31-.28c0-.22,0-.44-.06-.67s0-.19.05-.28,0-.13,0-.17a.83.83,0,0,1-.09-.49c0-.07,0-.09.09-.1s0-.11,0-.16-.13,0-.12-.11,0-.31,0-.46,0,0,0,0,.09-.06.1-.13-.07-.06-.1-.09,0-.08,0-.12.05-.26-.06-.37,0-.1.08-.09.12-.06.11-.14a.09.09,0,0,0-.06-.06c-.14,0-.14,0-.14-.12s0-.22,0-.33,0-.16.14-.15,0-.1.06-.15-.07,0-.11,0-.08.11-.09,0,0-.26,0-.4,0-.23.16-.2a.17.17,0,0,0,0-.1s0-.09-.06-.09c-.17,0-.18-.1-.12-.17s0-.19,0-.28,0-.16.11-.16a.22.22,0,0,0,0-.14.43.43,0,0,1,0-.48s0-.13,0-.2,0-.15,0-.19a.26.26,0,0,0,0-.35.32.32,0,0,1-.06-.17c0-.06,0-.11.05-.17a.06.06,0,0,0-.1-.06s-.1.11-.09.12,0,.24-.08.35a3.51,3.51,0,0,1-.22.57.72.72,0,0,1-.48.43.91.91,0,0,0-.51.37c-.07.1-.12,0-.18,0s0,0,0-.07a.17.17,0,0,0,.06-.09.17.17,0,0,0,0-.11.1.1,0,0,0-.08,0c-.06.14-.22.19-.3.3s-.15.25-.24.36a.25.25,0,0,1-.19.11c-.08,0-.19.06-.11.2s0,.13-.06.18-.25.34-.37.51a11.57,11.57,0,0,1-1.09,1.37,4.7,4.7,0,0,0-.64.82s-.08.06-.13.09-.11.06-.12.1,0,.14-.07.2-.31.31-.47.46a.17.17,0,0,1-.12,0c-.09,0-.13,0-.15.11s-.1.08-.16.09a2.59,2.59,0,0,1-.33,0h-.06c0-.06,0-.16-.08-.18s-.14.06-.19,0a.4.4,0,0,1-.15-.16s0-.13,0-.14-.16,0-.19,0-.16.05-.24.06c-.38,0-.5-.19-.59-.55,0,0,0-.07,0-.1s-.06-.13-.11-.14a.22.22,0,0,0-.17,0c-.11.09-.2.2-.31.3a1.46,1.46,0,0,1-.21.14.38.38,0,0,1-.25-.06s0,0,.05,0,.07-.11.06-.15-.07-.06-.12,0-.07,0-.07,0,0-.33,0-.5,0-.1.12-.1.12-.16.05-.18-.12-.21-.09-.29a4.08,4.08,0,0,0,.13-.67,4.85,4.85,0,0,1,.13-.64c.07-.25.11-.51.16-.76s.13-.5.16-.76a4.38,4.38,0,0,0,.14-.51.21.21,0,0,1,.12-.15c.08,0,.07-.07.07-.12a.69.69,0,0,1,0-.36c.21-.59.39-1.18.63-1.76.1-.24.13-.49.25-.72s.21-.46.31-.7c0,0,0-.12,0-.15s.07-.21.22-.17.1,0,.11-.11-.07-.08-.13-.09,0-.14,0-.16,0-.17,0-.25-.07-.08-.12,0-.27.26-.4.4a.17.17,0,0,1-.23,0c-.09,0-.15,0-.11.13s0,.14,0,.2-.33.28-.49.42,0,0,0,0c-.18,0-.19.1-.28.2a2.59,2.59,0,0,1-.53.46A5.84,5.84,0,0,0,26,87.22c-.12.15-.24.3-.38.43a.94.94,0,0,1-.21.14.23.23,0,0,1-.31-.05L25,87.67c-.11-.11-.21-.27-.4-.11a1.14,1.14,0,0,0-.44-.07c-.08-.14-.16,0-.24,0a1.47,1.47,0,0,1-.2.06c-.21,0-.3,0-.32-.27a.63.63,0,0,0,0-.19s-.27,0-.31,0-.32.26-.46.4a6.78,6.78,0,0,1-.64.52c-.15.11-.27.27-.44.37a.68.68,0,0,1-.48.12c-.08,0-.2,0-.23-.16s0-.06,0-.12a.76.76,0,0,0,0-.29c0-.06-.14-.12-.16-.08s-.11.15-.21.12a.89.89,0,0,1-.27-.15.33.33,0,0,1-.09-.16.22.22,0,0,0-.17-.16,6.27,6.27,0,0,1-.62-.26s-.07-.05-.07-.08-.06-.17-.17-.19-.14-.09-.21-.12-.21-.18-.22-.35a2,2,0,0,1,.16-.76c.08-.28.25-.54.31-.83.24-.1.1-.36.23-.53a2.65,2.65,0,0,0,.25-.52c.1-.21.13-.5.41-.59,0,0,0-.08,0-.11a.38.38,0,0,1,.07-.3,5.43,5.43,0,0,0,.45-.81,1.68,1.68,0,0,1,.22-.34c.08-.09.08-.15,0-.25l-.09-.09c-.07,0-.1-.14-.21-.14a.69.69,0,0,0-.4.07l-.85.58c-.21.14-.41.28-.63.4,0,0-.11.13-.17,0-.05,0-.14.06-.15.1s-.17.21-.28.27a10,10,0,0,1-.91.52c-.08,0-.16.09-.2,0s-.06-.09-.11-.06-.13.08-.08.15.06.07,0,.11-.39,0-.58.12-.29-.06-.32-.26a.34.34,0,0,0-.28-.31c-.28,0-.36-.22-.45-.43s0-.2-.09-.29,0-.2-.19-.15-.09,0-.13,0-.11-.05-.12-.14a.87.87,0,0,1,.09-.49c.05-.11.05-.16,0-.21a.15.15,0,0,0-.22.05c-.1.16-.26.13-.41.12a.18.18,0,0,1-.14-.11.55.55,0,0,1,0-.28c.11-.25.24-.5.36-.74a.2.2,0,0,1,.21-.12c.11,0,.18-.08.12-.15s0-.17,0-.21.26-.36.39-.53l.79-1.06c.11-.15.17-.35.37-.44,0,0,0-.13.05-.17a7.11,7.11,0,0,1,.81-1.09.41.41,0,0,0,.15-.33c0-.11-.07-.19-.18-.17a1.28,1.28,0,0,0-.35.1,3.82,3.82,0,0,0-.75.42l-.14.07c-.16.05-.31,0-.36-.1a1.24,1.24,0,0,0-.12-.18c0-.05,0-.1,0-.12a.11.11,0,0,0,.06-.08.19.19,0,0,0,0-.11l-.08,0a.22.22,0,0,1-.28,0,.59.59,0,0,1-.26-.55.57.57,0,0,0-.23-.53,1.34,1.34,0,0,1-.33-.46c0-.08,0-.11,0-.16.28-.26.56-.51.84-.77s.25-.29.38-.44a.2.2,0,0,0,.05-.08.16.16,0,0,0-.06-.17c-.05,0-.08,0-.14,0-.44.19-.88.37-1.31.59-.27.14-.56.25-.84.37h-.12a.47.47,0,0,1,0-.11c0-.05,0-.11-.07-.1s-.15.12-.12.15.08,0,.18.06-.18,0-.21.11c-.44.17-.88.32-1.31.51-.24-.1-.36.17-.57.18a2.55,2.55,0,0,0-.58.18,3.35,3.35,0,0,0-.6.22c-.11.06-.25,0-.32.1a1.41,1.41,0,0,0-.4.06c-.18,0-.37,0-.56,0s-.17-.09-.23-.15,0-.08,0-.11.13-.12.18-.19a.28.28,0,0,0,0-.14c0-.09-.06-.06-.11-.07H8.15s0-.16-.11-.11-.08.09-.11.14-.15.16-.26,0l-.09-.09s-.06-.09,0-.14l.5-.53.05,0a1.5,1.5,0,0,0,0-.16s-.09,0-.11,0-.33.1-.5.16-.2,0-.18-.14-.06-.07-.12,0-.2.09-.21-.09a.47.47,0,0,1,0-.16s0,0,0,0l0,0,0,0s0,0,0,0-.16.12-.26.1a.18.18,0,0,1-.12-.21A1.29,1.29,0,0,1,7,72.7c0-.06.07-.11,0-.16s-.07-.19-.19-.06-.14,0-.2.08a.18.18,0,0,1-.25,0c-.2-.12-.21-.15-.13-.37a2.3,2.3,0,0,1,.66-.77s.09-.05.13-.08.09-.08.15,0a.13.13,0,0,0,.1,0s.09,0,.09-.05,0-.13,0-.13-.07-.07,0-.1a3,3,0,0,0,.55-.42A.18.18,0,0,1,8,70.63c.08,0,.16,0,.14-.11a.08.08,0,0,1,0-.06l.61-.61s.06,0,.09,0,.09-.08.08-.13-.11-.08-.15-.06a1.64,1.64,0,0,1-.48.13.19.19,0,0,1-.17-.09s-.07,0-.1,0,0,0,0,0,0,.25-.17.22a.58.58,0,0,0-.27.06c-.17.07-.36.06-.54.12a.26.26,0,0,1-.32-.29.23.23,0,0,1,0-.11l.14-.14s.13-.1.06-.15-.1-.11-.21,0a.43.43,0,0,1-.3,0c-.17-.06-.16-.07-.13-.28a.54.54,0,0,0,0-.21.59.59,0,0,0-.1-.22A.69.69,0,0,1,6,67.95a.6.6,0,0,1,.44-.49.44.44,0,0,0,.13-.31h0l-.62.11c-.07,0-.1,0-.13-.09s-.06-.4.11-.5.37-.27.57-.38A4.9,4.9,0,0,0,7,65.91c.06,0,.12,0,.18,0s.1,0,.1-.05c0-.2.18-.22.28-.31.48-.4,1-.75,1.51-1.13a4.29,4.29,0,0,1,.4-.24c0,.08,0,.15.11.13s.09,0,.09-.09-.05-.12-.13-.11a8.56,8.56,0,0,1,1-.72.56.56,0,0,0,.28-.52c0-.31.06-.38.34-.49s.39-.18.6-.24.18-.16.25-.26,0-.17-.12-.16-.37-.05-.54.06a.13.13,0,0,1-.12,0c-.06-.06-.11-.07-.16,0s-.14.08-.23.09a.38.38,0,0,0-.25,0c-.08.06-.2.05-.18-.12,0,0-.05-.05-.08-.06s-.09,0-.11.07-.06.19-.23.19a1.25,1.25,0,0,0-.4.06c-.13,0-.28,0-.4.07h0a5.09,5.09,0,0,0-.9.07c-.37,0-.73.08-1.1.06a5.21,5.21,0,0,0-1.09,0,10.35,10.35,0,0,1-1.46.05c-.48,0-1,0-1.45,0A.69.69,0,0,1,3,62.24.28.28,0,0,1,2.8,62a.29.29,0,0,1,.08-.2.52.52,0,0,1,.42-.19.84.84,0,0,0,.62-.26l0,0-.06,0H3.13a.44.44,0,0,1-.33-.08,1,1,0,0,1-.23-.37c0-.11,0-.26-.07-.37.11-.08,0-.2.08-.3A1.9,1.9,0,0,1,2.7,60l-.22,0c-.22,0-.26-.08-.25-.34s.12-.23.06-.36-.11-.2-.16-.3a.13.13,0,0,1,0-.11,1.6,1.6,0,0,1,.16-.17l0,0c.08,0,.22.18.25,0s.16-.13.25-.18l1-.54s.07,0,.08,0c.2.12.28.08.27-.16,0-.05.13-.12.22-.16L5.47,57c.11-.06.08,0,.07.06s0,.1.12.1.08-.08.08-.14a.18.18,0,0,1,.08-.17c.26-.1.51-.2.77-.29a8.09,8.09,0,0,0,.78-.26c.11,0,.25,0,.36-.08s.19-.12.19.08c0,0,.06.05.09.05s.1,0,.1,0,0-.14-.06-.15-.09,0,0-.06c.24-.05.47-.15.71-.19s.37-.14.56-.17a1.43,1.43,0,0,0,.53-.24l.07,0a.23.23,0,0,0-.09,0c-.1,0-.19,0-.3,0a.84.84,0,0,1-.29-.09c-.11,0-.24,0-.34-.07s-.08,0-.13,0a.78.78,0,0,1-.37-.06c-.11-.06-.24,0-.37-.06s-.28,0-.43-.07-.34,0-.46-.08-.33,0-.45-.12-.09,0-.13,0-.06,0,0-.09a.09.09,0,0,0,0-.06s0-.12-.07-.12-.15,0-.13.09-.07.13-.14.11-.31-.11-.46-.17a.4.4,0,0,0-.15,0A1.74,1.74,0,0,1,5,54.46a1,1,0,0,0-.22,0A3.47,3.47,0,0,1,4,54.38c-.36-.1-.53-.26-.41-.61a.93.93,0,0,0-.05-.66s0-.09,0-.11,0-.16,0-.26-.09-.16-.2-.16-.07,0-.1-.07a.15.15,0,0,1,0-.08c.08,0,.17-.09.13-.21s.11-.1.16-.16.21-.23.1-.47-.09-.26.16-.41A1.39,1.39,0,0,1,4.3,51c.3,0,.57-.2.87-.22a.84.84,0,0,0,.37-.22c.11-.08.09-.16,0-.22s-.25-.09-.37-.14a5.17,5.17,0,0,0-.81-.2H4.27c-.12,0-.07-.28-.23-.17s-.2,0-.29,0l-.32-.1-.29-.1c-.2-.06-.37-.16-.58-.21A3.29,3.29,0,0,0,2,49.27c-.12,0-.25,0-.24-.21s-.08-.07-.12,0-.17.08-.25,0a1.55,1.55,0,0,1-.3-.23A.47.47,0,0,1,1,48.51a.94.94,0,0,1,.21-.74.21.21,0,0,0,0-.33c-.07,0-.16-.05-.18-.16S.87,47,.93,46.85s.07-.14.05-.17,0-.34-.17-.46l-.09-.09S.6,46,.61,46a.55.55,0,0,1,.16-.22,3.09,3.09,0,0,1,.89-.39,2.22,2.22,0,0,1,.74-.14s.08,0,.1,0,.27,0,.4-.09.12,0,.29.07.15,0,.18-.08,0-.09.05-.1L3.85,45l.3-.06c.1,0,.21,0,.31-.06s.17,0,.26,0A.57.57,0,0,0,5,44.79c.08,0,.2,0,.21-.14s-.1-.12-.17-.15A.19.19,0,0,1,5,44.4s0-.15-.07-.14-.09.05-.12.09-.06,0-.1,0A2.9,2.9,0,0,1,3.94,44l-.64-.28c-.11,0,0-.05,0-.07s0-.11.05-.16l-.11,0c-.08,0-.09,0-.08.1s0,.12-.11.08a8.47,8.47,0,0,1-1.1-.45,3.93,3.93,0,0,1-.41-.28s0-.06,0-.09h.07l.05,0c.06,0,.13,0,.14-.08s0-.13-.13-.12,0-.06.05-.06h.49c.12,0,.18.06.18.18s0,.09.1.09.11,0,.1-.08,0-.15.11-.06.11,0,.15-.1,0-.1-.06-.13a2,2,0,0,0-.29-.17,2.82,2.82,0,0,1-.71-.44c-.21-.19-.24-.32-.1-.54a1.43,1.43,0,0,1,.12-.18.17.17,0,0,0,0-.23.73.73,0,0,1-.1-.32.57.57,0,0,1,.09-.32A.74.74,0,0,1,2.45,40h.36c.24,0,.46-.11.7-.07,0,0,0,0,.05,0l0,0c-.07-.08-.18-.13-.16-.27s-.06,0-.1,0-.14,0-.17,0a3.3,3.3,0,0,0-.45-.26.46.46,0,0,1-.17-.14c0-.06-.09-.15.05-.2s.1-.12.15-.19a.15.15,0,0,0,0-.23l-.42-.42c-.07-.07-.07-.14,0-.18s.23-.1.33,0a.24.24,0,0,1-.09,0c-.09,0-.11,0-.1.11s0,.09.09.09.11-.06.11-.19l.2,0,.19,0a.82.82,0,0,0-.08-.22,1.6,1.6,0,0,0-.23-.24c-.1-.09-.09-.16,0-.28a1.53,1.53,0,0,1,.29-.34.57.57,0,0,1,.36-.24c.15,0,.15-.07.08-.22s0,0,0,0-.15-.18-.06-.29a.54.54,0,0,1,.34-.21h.2c.61,0,1.21,0,1.82,0,.39,0,.77-.07,1.16-.08.09,0,.18-.06.27-.06s.18.05.27.06a4.11,4.11,0,0,0,.56,0c.47,0,.93.1,1.39.07a1.36,1.36,0,0,0,.5.07c.16,0,.32,0,.47.07a3.44,3.44,0,0,1,.4.06,2.67,2.67,0,0,0,.37.06,2.88,2.88,0,0,0,.94.13c.22.12.47,0,.7.07s.12,0,.08.13a.85.85,0,0,0,0,.11l.12,0,.05,0c0-.05,0-.11,0-.16l.16,0s0-.06,0-.07a7.56,7.56,0,0,1-.65-.58,7.59,7.59,0,0,0-.67-.46.67.67,0,0,1-.35-.42.12.12,0,0,0-.07,0c-.11.11-.16,0-.22-.06l-.49-.42c-.08-.06,0-.1,0-.17s0-.17-.12-.11-.17,0-.25,0c-.27-.24-.57-.44-.85-.66a1.09,1.09,0,0,1-.46-.63c0-.09,0-.06,0-.09s0-.09.05-.13-.22,0-.08-.15,0-.18,0-.25,0-.35.12-.51.06-.17.16-.2a.17.17,0,0,0,.11-.21c-.05-.32.16-.53.33-.75a.25.25,0,0,1,.32-.07,1.82,1.82,0,0,0,.62.17c.14.15.34,0,.51.12a2.08,2.08,0,0,0,.63.08.37.37,0,0,1,.18,0,.16.16,0,0,0,.24-.07.19.19,0,0,0-.09-.22.94.94,0,0,1-.13-.07c-.23-.21-.46-.43-.7-.63-.87-.74-1.63-1.59-2.44-2.39a4.63,4.63,0,0,0-.66-.49.82.82,0,0,1-.13-.09c-.08-.08-.2-.15-.12-.29s.08-.22.24-.21.07-.1.06-.15S8,26,8,26l0,0a1,1,0,0,1-.09-.23c0-.06.15-.13.22-.1s.14.09.21.13.09,0,.09-.05a.6.6,0,0,1,.33-.54c0,.08,0,.15.11.13s.09,0,.09-.09-.05-.12-.13-.11A.74.74,0,0,0,9,24.6a.75.75,0,0,1,0-.2c0-.09-.05-.22.06-.27s.28-.16.41-.11c.31.13.65.1,1,.26.17,0,.31.07.47.07a1.16,1.16,0,0,1,.24.06c.08,0,0,0,0,.08s0,.07,0,.11h.15c0-.16.14-.14.22-.11a11.75,11.75,0,0,1,1.34.43,3.8,3.8,0,0,0,.63.22c.09,0,.11.06.05.13s-.09.11,0,.14.15,0,.14-.11,0-.09.08,0c.56.26,1.14.5,1.69.77a.65.65,0,0,0,.21,0c.09,0,.18,0,.22.12s.17,0,.17-.08a.4.4,0,0,1,.09-.3.35.35,0,0,0,0-.39,1.58,1.58,0,0,0-.21-.28c-.18-.23-.37-.46-.55-.7s-.44-.61-.66-.91l-.3-.44s0,0,0-.07.08-.18-.09-.2a.37.37,0,0,1-.21-.17c-.29-.45-.57-.91-.87-1.36a5,5,0,0,0-.48-.56c-.08-.08,0-.07,0-.08s.06-.12,0-.16-.09,0-.13,0-.09,0-.14,0l-.19-.19a.37.37,0,0,1,0-.56,1.4,1.4,0,0,0,.34-.55c0-.06,0-.13.11-.12a.16.16,0,0,0,0-.08c0-.29.07-.37.33-.38.09,0,.2,0,.25,0s0-.15,0-.23a.35.35,0,0,1,0-.2c0-.05.07-.14.11-.14a.89.89,0,0,1,.38,0c.46.2.88.49,1.31.73,0,0,0,.05,0,.09a.25.25,0,0,1-.09,0c-.09,0-.11,0-.1.11s0,.09.09.09.11-.06.11-.19c.15-.06.18.14.31.12.32.31.72.52,1,.83s.38.29.57.45a2.72,2.72,0,0,1,.27.28s0,.08,0,.08c.2,0,.25.2.39.26s.25.23.39.33,0,.06,0,.1,0,.12.07.11a.42.42,0,0,1,.28.07,2.7,2.7,0,0,1,.62.55s0,0,0,0a.15.15,0,0,0-.16.14s.06,0,.09.05.11-.06.11-.18a.07.07,0,0,1,.07,0c.08,0,.16.12.26,0l-.15-.23s-.07-.06-.09-.1a.1.1,0,0,1,0-.09,2.43,2.43,0,0,1,.23-.3,1.22,1.22,0,0,0,.35-.62c0-.06,0-.11.09-.1a.06.06,0,0,0,0,0c.12-.3.13-.3.47-.43a1.1,1.1,0,0,1,.38-.14.88.88,0,0,1,.62.25.65.65,0,0,1,.12.16.24.24,0,0,1-.09,0c-.09,0-.11,0-.1.11s0,.09.09.09.11-.06.11-.19a.14.14,0,0,1,.17.05,3,3,0,0,0,.65.51l.37.21a1,1,0,0,1,.2.13c.1.1.24.09.26,0a.27.27,0,0,0,0-.25c-.15-.18-.28-.37-.42-.55l-.49-.62c-.05-.07,0-.06,0-.07s0-.1.06-.16-.11-.05-.14,0-.14,0-.19,0-.11-.15-.17-.23l-.16-.23c-.06-.07-.16-.12-.13-.24-.12,0-.17-.16-.25-.25-.41-.53-.77-1.09-1.14-1.64-.1-.14-.24-.27-.2-.48,0,0,0-.05,0-.05-.23,0-.19-.18-.27-.28a3,3,0,0,1-.24-.36l-.42-.68c0-.06,0-.07,0-.07s.05,0,.06,0a.21.21,0,0,0,.06-.09s0-.08,0-.09a.23.23,0,0,0-.11,0s0,0,0,0S19,15,19,15q-.32-.69-.68-1.37c-.05-.1,0-.07,0-.08h0s.07,0,.07-.07a.32.32,0,0,0,0-.12l-.11,0a.66.66,0,0,0-.09.08.8.8,0,0,1-.07-.14c-.1-.33-.29-.63-.38-1a.93.93,0,0,0-.19-.32c-.07-.08-.05-.07,0-.1a.1.1,0,0,0,0-.18c-.12,0-.12-.07-.05-.15a1.13,1.13,0,0,1,.8-.46s.07,0,.08,0c.1-.29.32-.32.57-.29a.26.26,0,0,0,.09,0,.62.62,0,0,0,0-.11c0-.06-.08-.12-.11-.18s-.05-.14,0-.17.1,0,.16,0,.12,0,.17-.07.39-.3.62-.38.33.1.47.21a4.41,4.41,0,0,1,.4.39,1.81,1.81,0,0,0,.5.38c.14.07.13.28.34.29s.26.16.39.24l.39.26s0,.05,0,.1,0,0,0,0a.15.15,0,0,0-.16.14s.06,0,.09.05.11-.06.11-.18a.14.14,0,0,1,.12,0,16.61,16.61,0,0,1,2.07,1.87,6.62,6.62,0,0,0,.5.45,4.83,4.83,0,0,1,.76.87,1.65,1.65,0,0,0,.34.28l.23.16.07,0a.4.4,0,0,0,0-.09c-.1-.31-.21-.62-.31-.93,0-.07,0-.09.1-.08s.11,0,.1-.09a.27.27,0,0,0,0-.11l-.08,0,0,0s-.07.1-.09,0-.07-.21-.09-.32a3.88,3.88,0,0,0-.18-.49c-.06-.17-.08-.34-.14-.5a1.32,1.32,0,0,1-.12-.52c0-.07-.05-.13-.06-.2s0-.17.05-.24a.11.11,0,0,0-.07-.17c-.05,0-.11-.12-.12-.19-.1-.59-.31-1.15-.47-1.72,0,0-.05-.07-.06-.11-.07-.33,0-.45.34-.54.13,0,.2-.08.18-.21s0-.14.08-.16.13-.2.29-.17a2.28,2.28,0,0,0,.43,0c0,.08,0,.15.11.13s.09,0,.09-.09-.05-.12-.13-.11,0-.18.08-.23a.22.22,0,0,1,.26,0c.11.06.13,0,.12-.09s0-.12-.05-.17a.26.26,0,0,1,.05-.14c0-.06.06,0,.09,0l.09,0c.2.09.27,0,.28-.16a.37.37,0,0,1,0-.1c0-.1.06-.25.18-.27s.17.06.24.12a1.53,1.53,0,0,1,.21.21s0,0,0,.07,0,.12,0,.12a.34.34,0,0,1,.33.23c.09.22.35.29.42.52.21.07.3.28.49.39s.31.18.31.39c0,0,0,.06.06.05a.19.19,0,0,1,.19.09,7.13,7.13,0,0,1,.47.6l0,0,.63.7a1.77,1.77,0,0,1,.36.41.76.76,0,0,0,.45.27c.12,0,.18.06.18.18s0,.09.1.09.11,0,.1-.12,0-.11.08,0a2.84,2.84,0,0,1,.38.57c.07.1.17.17.13.31s0,.07,0,.06.13.06.18.13c.23.27.47.53.72.79.1.11.24.18.34.28.29.3.58.59.84.91s.68.84,1,1.27a2.64,2.64,0,0,1,.24.42s0,0,0,0a.15.15,0,0,0-.16.14s.06,0,.09.05.11-.06.11-.18c.15,0,.13.2.24.25s.1.05.13,0,.11-.07.08-.15a3.25,3.25,0,0,1-.13-.54c-.05-.23-.1-.46-.17-.69s-.15-.55-.22-.83c0-.06,0-.13-.06-.18s0-.09,0-.09.08-.08.08-.14-.07-.05-.12-.07A.13.13,0,0,1,35.7,14a4.37,4.37,0,0,1-.13-.57,5.61,5.61,0,0,1-.14-1c-.12-.14,0-.32-.09-.46s0-.31,0-.44,0-.39-.07-.56,0-.37-.06-.54a4.69,4.69,0,0,1-.06-1.06,1,1,0,0,0,0-.18.73.73,0,0,1,0-.47.3.3,0,0,0,0-.15,1.11,1.11,0,0,1,0-.67.11.11,0,0,0,0-.07c-.09-.18,0-.38-.08-.57s0-.12.06-.16,0-.1,0-.15S35,6.93,35,6.9s0-.33,0-.49,0,0,.07,0,.09-.16,0-.19-.09,0-.08-.11a.73.73,0,0,0-.06-.37c0-.08,0-.13.12-.13s.1-.12.07-.17l-.05,0c-.13,0-.13,0-.14-.09s0-.07,0-.1c0-.4.1-.35.44-.33.08.12.14,0,.21,0s.12-.07.17-.06.18-.05.17-.18.07,0,.1,0a1.2,1.2,0,0,0,.49-.24c.11-.08.19-.21.32-.26s0-.07.07-.1l.13-.2.17.14a5.82,5.82,0,0,0,.42.42c.15.12.2.31.4.54.05.08,0,0,0,0l-.08-.11a.85.85,0,0,0,0,.16S38,5,38,5h0s0,0,0-.14-.17-.43-.14-.6a4.61,4.61,0,0,0,0-.53.27.27,0,0,1,.23-.29.17.17,0,0,1,.13.07c.13.19.25.38.36.58a1.53,1.53,0,0,0,.23.4l0,0c0,.2.15.29.21.43s.13.32.2.48a5,5,0,0,1,.23.47c.11.31.3.58.41.89s.25.53.35.81.22.53.33.79c0,.06,0,.12-.06.18s-.06,0-.06.07a.12.12,0,0,0,.05.09.14.14,0,0,0,.12,0c.06-.06.07,0,.09,0s.13.34.19.51.13.41.2.61.17.39.24.59c.17.47.33.94.49,1.42a2.37,2.37,0,0,0,.15.46c.07.11,0,.24.05.31s.17.44.25.66a4.36,4.36,0,0,1,.19.68c.06.32.14.63.21.94s.12.5.17.75c0,.06,0,.13,0,.18s.11.09.11.19a.37.37,0,0,0,0,.21c.09.14,0,.19-.1.23a.09.09,0,0,0,0,0s0,.06,0,.09.05,0,.08,0,.05,0,.06,0l.1-.11a.7.7,0,0,0,0,.19,2.37,2.37,0,0,1,.13.61,1.69,1.69,0,0,0,.2.48l0,0s0,0,0,0a.26.26,0,0,0,0-.07c0-.39,0-.77.07-1.16,0,0,0,0,.16,0s.06-.07,0-.06-.14,0-.13.12a.11.11,0,0,0,.07.07c.06,0,.14,0,0-.13a.67.67,0,0,1,0-.57.14.14,0,0,1,.09-.1c.08,0,.07-.17,0-.18a.12.12,0,0,1-.09-.19c.12-.13,0-.32.12-.45a.1.1,0,0,0,0-.09.55.55,0,0,1,0-.48c0-.15,0-.34,0-.49a3.47,3.47,0,0,0,.06-.8c0-.15,0-.29.06-.44s0-.3.06-.44,0-.09,0-.13a1,1,0,0,1,.06-.41c.05-.11,0-.28,0-.38s0-.29.1-.39a4.93,4.93,0,0,1,.13-.8s0-.06.16,0,.08-.06,0,0-.12,0-.1.06,0,.14.08.13.14,0,0-.15a.65.65,0,0,1,.06-.64.26.26,0,0,0,0-.12,1.1,1.1,0,0,1,0-.34c0-.1,0-.21.08-.3s0-.22.07-.33,0-.21.06-.33A2.34,2.34,0,0,0,45,7.52c0-.15.05-.29.06-.43s0-.29,0-.43,0-.12,0-.16c-.16-.27.07-.4.2-.55a.78.78,0,0,1,.29-.17.75.75,0,0,0,.43-.67A.65.65,0,0,1,46,4.84a.12.12,0,0,1,.09-.05c.09,0,.1,0,.11-.12s-.08-.08-.13-.08a3.49,3.49,0,0,1,.15-.83c.05-.24.11-.48.17-.72s.17-.59.24-.89a2,2,0,0,0,.09-.36c0-.14,0-.2.18-.18s.09,0,.09-.09,0-.11-.08-.1-.12,0-.06-.11A1.82,1.82,0,0,0,46.95,1a.41.41,0,0,1,.49-.21c.09,0,.1.13.1.22s0,.14.05.16a.16.16,0,0,0,.17-.06c.09-.12.18-.24.28-.35a.12.12,0,0,1,.22.06c0,.06,0,.13,0,.2a1.41,1.41,0,0,0,.07.24c0,.08.06,0,.08,0s.09,0,.11-.08.21-.19.33-.27a.38.38,0,0,1,.49.06,1,1,0,0,1,.14.14c.15.18.24.2.41,0L50,1a.3.3,0,0,1,.51.14c.06.41.24.79.28,1.21a3.07,3.07,0,0,0,.16.46c0,.12.06.19-.08.23s-.05,0-.07.07,0,0,0,.06a.11.11,0,0,0,.07,0c.15,0,.13,0,.2.16a2.83,2.83,0,0,1,.12.41c0,.14,0,.29.08.43s.07.6.19.88c.05.13,0,.29.06.44a4.35,4.35,0,0,1,.08.7c0,.1.05.2.06.3a1.92,1.92,0,0,0,0,.33c0,.07,0,.12,0,.17s-.1.12,0,.15,0,.06,0,.1a.78.78,0,0,0,.06.37c0,.05,0,.14-.09.12s-.1,0-.1.12,0,.09.1.08.1,0,.1.09a6.23,6.23,0,0,1,.07.87s0,.05,0,.06.07.1.12.1A.17.17,0,0,0,52.07,9a.47.47,0,0,0,.08-.23c0-.24.12-.46.07-.7a1.29,1.29,0,0,1,.08-.5c0-.13.15-.22.28-.28a1.13,1.13,0,0,1,.65-.13c.05,0,.1,0,.11-.07a.4.4,0,0,1,.08-.23c.19-.17.2-.43.31-.63a3.56,3.56,0,0,0,.17-.46s0-.07,0-.09.15-.08.19-.15-.06-.16-.06-.23a.51.51,0,0,1,.07-.23,10.72,10.72,0,0,0,.45-1.24,3.73,3.73,0,0,1,.14-.44c0-.07,0-.2.15-.22S55,3,55,3a.27.27,0,0,1,.16-.09,1.19,1.19,0,0,1,.26,0s0,0,0,.05.07.29.07.44,0,.29,0,.43-.08.06-.05.11A.17.17,0,0,0,55.7,4s0-.07,0-.11-.07-.08-.13-.08.08-.21.13-.3a1.66,1.66,0,0,1,.6-.59.28.28,0,0,1,.12,0c.11,0,.08.07.08.15s0,0,0,0a.15.15,0,0,0-.16.14s.06,0,.09.05.11-.06.11-.18.06,0,.06,0,0,.09.11.07l.14-.07C57,3,57,3,57.12,3.13a.12.12,0,0,0,.2,0,.27.27,0,0,1,.46.07.44.44,0,0,0,0,.11s0,.08.09,0l.19-.19a.15.15,0,0,1,.23,0,.54.54,0,0,1,.18.39c0,1.17,0,2.34.06,3.51a1.85,1.85,0,0,1,0,.43c-.08.35,0,.72-.07,1.06s0,.56-.06.83,0,.56-.07.83a5.73,5.73,0,0,0-.06.77c0,.11,0,.22-.06.34s0,.21-.06.31,0,.13,0,.19,0,.35-.08.53a.35.35,0,0,1-.07.14s-.13,0-.12.11,0,.12.11.12a.07.07,0,0,1,0,0,1.79,1.79,0,0,0-.1.48c0,.16-.07.33-.09.5a3.32,3.32,0,0,1-.13.64,1.84,1.84,0,0,0-.06.31c0,.09,0,.18-.06.27s-.05.22-.07.34,0,.22-.07.3a3.8,3.8,0,0,1-.06.6c0,.66,0,1.32,0,2,0,0,0,0,0,.07l.06.09s.05,0,.06-.05a2.9,2.9,0,0,0,.27-.71c0-.1,0-.22.23-.24s.08-.06,0,0-.12,0-.1.06,0,.14.08.13.14,0,0-.15a.66.66,0,0,1,.05-.61c.15-.34.25-.69.37-1a2.09,2.09,0,0,0,.21-.61c0-.07.05,0,.08,0a.31.31,0,0,0,.15,0s0-.08,0-.12-.07-.05-.12-.06-.06,0,0-.06l.35-.95c.11-.31.25-.6.35-.91,0-.1.09-.23.16-.25s.12-.12.09-.16,0-.12,0-.18l.49-1.12c0-.09.07-.18.2-.14s.1,0,.1,0,0-.14,0-.14-.12,0-.07-.14c.19-.36.39-.72.55-1.09a.22.22,0,0,1,.23-.16.11.11,0,0,0,.1-.17s-.07,0-.11,0a1.36,1.36,0,0,1,.07-.16L61.94,8c.16-.08.16-.26.26-.38a3.86,3.86,0,0,0,.27-.38c.14-.22.26-.45.42-.65s.25-.45.39-.66a3,3,0,0,1,.23-.3c.06-.06.16-.07.19-.18s.1-.08.17-.06a.15.15,0,0,1,.13.16c0,.12,0,.24,0,.36A.31.31,0,0,0,64,6c0,.06.1.09.16,0a1.47,1.47,0,0,0,.13-.21c.18-.36.47-.37.74-.09,0,0,.06.08,0,.11S65,6,65.08,6s.11,0,.16,0a1,1,0,0,1,.24-.06.16.16,0,0,1,.16.21c-.08.16-.1.34-.16.5a1.09,1.09,0,0,0,0,.41s.07.1.12.12.1,0,.12-.08.15-.36.21-.54a2.16,2.16,0,0,0,.16-.4c0-.19.22-.2.37-.06l.2.16c0,.09,0,.14.12.13s.09-.09.08-.14-.1-.14.07-.13.33.09.33.33a1.09,1.09,0,0,1,0,.46c-.06.13,0,.29-.12.38s0,0,0,0c0,.28,0,.55-.07.83s-.05.29-.06.44A2.33,2.33,0,0,1,67,9c-.05.18,0,.36-.07.54a1.88,1.88,0,0,0-.06.5c0,.09-.06.06-.11.07s-.13.16-.06.18.11.11.11.19a.74.74,0,0,1-.1.49.15.15,0,0,0,0,.08,3.39,3.39,0,0,1-.18,1.32c-.08.31-.15.62-.21.94,0,.06,0,.09.09.06a2.14,2.14,0,0,0,.82-.5.94.94,0,0,0,.16-.16c.06-.08.1,0,.17,0s.18,0,.14-.13a.22.22,0,0,1,0-.26L68,12c.12-.12.12-.12.34-.09s.15,0,.11-.13-.05-.15,0-.2a1.33,1.33,0,0,0,.43-.38c.09-.12.25,0,.31-.12s0-.21.1-.29.34-.29.51-.44.08,0,.12,0,.07,0,.07-.07.14-.22.23-.3.16,0,.24,0,.11.11.17.16,0,.06,0,.09,0,.11.06.11a1.13,1.13,0,0,1,.82.41,2.7,2.7,0,0,0,.95.59.64.64,0,0,1,.24.2s0,.12,0,.18a.66.66,0,0,1-.08.43,8.19,8.19,0,0,0-.25.92.76.76,0,0,1-.07.17c0,.06-.11.11-.12.18s.06.14.05.2a1.46,1.46,0,0,1-.08.46,4.2,4.2,0,0,0-.17.72c-.13.53-.24,1.06-.4,1.59,0,.13-.2.09-.2.21s.11.16,0,.29a5.38,5.38,0,0,0-.26.65s0,.06,0,.08,0,.1,0,.11a.15.15,0,0,0,.13,0,.49.49,0,0,0,.12-.11l.63-.69c.09-.09.2-.16.29-.25s.16-.18.25-.26l.26-.24c.1-.09.18-.2.28-.28.32-.26.64-.54,1-.81s.58-.47.85-.73a3,3,0,0,1,.32-.26s.06,0,.2.05.09-.07,0-.05-.12,0-.1.06,0,.14.08.13.14,0,0-.14.22-.29.35-.45a1,1,0,0,1,.18-.13s0-.06.07-.07.21,0,.28,0,0-.16.1-.22.15-.12.23-.16a4,4,0,0,1,.93-.47s.06,0,.1,0,.22.13.26.28.12.14.19.2a1.86,1.86,0,0,1,.32.31.66.66,0,0,0,.31.3s.13.13.09.14,0,.25-.15.24-.18.09-.17.21,0,.22,0,.33-.07.18.07.18,0-.1.06-.15l0,0,.57-.44c.06,0,.07,0,.07,0s.07.06.12.06.08,0,.08-.11a.34.34,0,0,1,0-.09l.07.06c.12.17.13.2,0,.36s-.14.33-.3.44,0,.07,0,.11h.17c0-.25.24-.32.36-.48s.08-.08.12-.12.14-.13.25-.08.22.12.21.27a1.12,1.12,0,0,1-.07.33c0,.07,0,0-.06,0a.16.16,0,0,0-.08-.06l-.11.14s.07.05.1,0,.12,0,.09.12l-.54,1.2A10.58,10.58,0,0,1,78.89,18c-.05.08,0,.2-.17.26a.48.48,0,0,1,0-.11c0-.05,0-.11-.07-.1s-.15.12-.12.15.08,0,.18.06a11.69,11.69,0,0,1-.93,1.44c-.19.25-.34.54-.51.81a.49.49,0,0,1-.15.12.25.25,0,0,1,0-.09c0-.09,0-.11-.11-.1s-.09,0-.09.09.06.11.19.11,0,.08,0,.1a8,8,0,0,0-.73,1.05c-.09.14-.24.23-.27.42,0,0,0,0-.05.08s0,.15.11.14.12,0,.18,0a2.46,2.46,0,0,1,.66-.14c.12,0,.09-.12.14-.13a1.46,1.46,0,0,0,.48-.21,2.65,2.65,0,0,0,.26-.08,1,1,0,0,1,.74-.11.56.56,0,0,1,.47.35,1.83,1.83,0,0,0,.51.78.35.35,0,0,1,.06.42c-.06.13-.08.33-.29.38-.05,0-.15.09-.05.18s0,.07,0,.09l-.16.23-.17.23a2.87,2.87,0,0,0-.46,1.06.58.58,0,0,1,0,.1.27.27,0,0,0,.26-.05c.41-.28.87-.46,1.28-.73a7.31,7.31,0,0,1,1-.47c.46-.21.94-.39,1.41-.59h.07c0,.06,0,.14.09.13s.13,0,.11-.11.05-.17.14-.2c.4-.13.77-.33,1.17-.45,0,0,.08,0,.11,0s.16,0,.18-.12.07,0,.11,0l.59-.26a.64.64,0,0,1,.58,0c.07,0,.16.1,0,.21s0,.1,0,.15,0,.1.09.09h.07c.23,0,.27.06.15.24s0,.17.05.21a1.51,1.51,0,0,1,.59.65c.06.13.05.19,0,.28a.34.34,0,0,0,0,.11l.12,0,.4.07a.33.33,0,0,1,.21.4,1.8,1.8,0,0,1-.33.62c-.08.13-.14.28-.32.33a.1.1,0,0,0,0,.18,0,0,0,0,1,0,0c-.23.23-.35.56-.66.75a.48.48,0,0,1,0-.11c0-.05,0-.11-.07-.1s-.15.12-.12.15.08,0,.18.06c-.05.22-.26.35-.38.55a5.47,5.47,0,0,1-1,1c-.26.23-.5.48-.76.7s-.63.5-.94.75c-.11.09-.07,0-.1,0s-.11,0-.16,0-.05.09,0,.13l.09,0s0,0,0,0c-.21.08-.31.32-.52.41s-.12.15-.25.12-.06,0-.07.06c-.08.2-.26.29-.42.42s-.25.25-.38.37-.08.1,0,.13.12,0,.17,0,0-.09.06-.08c.19,0,.35-.08.63,0,.11,0,.09-.07,0-.05s-.12,0-.1.06,0,.14.08.13.14,0,0-.14.08-.12.16-.18.24,0,.36-.08a.72.72,0,0,1,.33-.06c.08-.13.23-.05.35-.12a1.59,1.59,0,0,1,.52-.08l.33-.06a1.84,1.84,0,0,0,.34-.06c.16-.05.36,0,.53-.07s.11,0,.17.05a.31.31,0,0,0,.15,0c0-.17.16-.12.25-.11a1.13,1.13,0,0,0,.34-.07c.09,0,.13,0,0,.09s0,.1,0,.1.16,0,.15-.05.13-.19.22-.2a3.62,3.62,0,0,1,.55,0s0,0,0,.05a.16.16,0,0,0-.19.09s0,.1.06.11h.13a1.16,1.16,0,0,1,0,.13c0,.09,0,.11.12.14a.62.62,0,0,1,.41.21c0,.05.08.09.07.17s0,.1,0,.12c.19.14.09.34.11.52s0,.08,0,.11-.08.13.06.18.11.16.14.26-.15.18,0,.26.17,0,.26,0a.27.27,0,0,1,.18.42,2.61,2.61,0,0,0-.16.23,2.1,2.1,0,0,0-.1.25l.22,0c.09,0,.15,0,.19.11s.17,0,.17-.07,0-.11.11-.11h.46c.15,0,0,.06,0,.1s0,.1.09.1.12,0,.11-.08a1,1,0,0,0-.05-.17l.22,0h.5c.15,0,.29-.05.44-.06a2,2,0,0,0,.46,0,2.32,2.32,0,0,1,.57-.06,2.46,2.46,0,0,0,.3-.06l.34-.07a1.76,1.76,0,0,0,.31-.05.43.43,0,0,1,.52.16c.07.09,0,.18.06.27a1.29,1.29,0,0,1,.11.61.45.45,0,0,1,0,.21c-.05.09,0,.19.1.27s.16.29.15.46c0,0-.07,0-.09,0a.23.23,0,0,0-.1.11c0,.07,0,.07.1.09s.16.12.24.12.16-.09.24-.12.17,0,.18,0,.13.17.08.29A2.09,2.09,0,0,1,93,37c-.4.32-.87.55-1.26.88-.05,0-.13.07-.18.12s-.08,0-.1,0-.11,0-.14,0,0,.09,0,.14.16.13,0,.12a9.62,9.62,0,0,1-2,1.12,5,5,0,0,1-1,.41.47.47,0,0,1,0-.11c0-.05,0-.11-.07-.1s-.15.12-.12.15.08,0,.18.06a3.82,3.82,0,0,1-.46.23,4.11,4.11,0,0,1-.47.22l-.53.24a.17.17,0,0,1-.11,0c0-.08,0-.13-.12-.09s-.13.08-.08.15.06.07,0,.1l-.86.32a5.64,5.64,0,0,1-.78.27c-.06,0-.1.08-.15.12s0,.07,0,.09a.22.22,0,0,0,.11,0h1.65a.74.74,0,0,1,.44-.06.19.19,0,0,1,.12,0,1.08,1.08,0,0,0,.7.23c.1,0,.19.1.3.07s0,.08.08.11.07.1,0,.16,0,.1,0,.12a2.16,2.16,0,0,0,.8.14.79.79,0,0,1,.38,0,1.1,1.1,0,0,0,.38,0,1.62,1.62,0,0,1,.39,0,4.27,4.27,0,0,0,.83.06,21.73,21.73,0,0,0,2.45.06.75.75,0,0,1,.27.07c.13.06.13.1,0,.24a.31.31,0,0,0-.05.14c0,.08-.05.08-.11.08s-.14,0-.15,0,0,.17,0,.24.18.23.35.19a.16.16,0,0,1,.17.06s.05,0,.08,0,0,.06-.07.07a.19.19,0,0,1-.11,0c0-.06,0-.12-.09-.09s-.08.09-.12.14c.12.09,0,.18,0,.28a.18.18,0,0,0,0,.11l.08,0s.06-.07.1-.09a.1.1,0,0,1,.09,0c.14.08.29.41.21.53a.67.67,0,0,1-.28.25c-.25.13-.48.29-.71.43,0,0-.09,0-.11,0s-.14,0-.18,0,0,.09-.08.12l-.08.07s.05.11.09.12a.49.49,0,0,0,.22,0l.38-.11.4-.07a1.32,1.32,0,0,1,.34-.07.27.27,0,0,1,.22.11c.09.1.09.17,0,.27l-.39.33a.11.11,0,0,1-.11,0,.11.11,0,0,0-.2.05c0,.29-.25.29-.41.36s-.56.24-.85.34c-.05,0-.12.12-.18,0a.12.12,0,0,0-.08,0c-.17.23-.45.26-.68.36s-.7.27-1.06.4a2.33,2.33,0,0,0-.43.15c-.12.08-.08,0-.09-.06a.16.16,0,0,0-.06-.09s-.05,0-.08,0,0,0,0,0c0,.22-.17.17-.26.23a1.07,1.07,0,0,1-.36.08c-.11,0-.26,0-.33.07s-.27,0-.35.12a2.41,2.41,0,0,0-.77.14,3.22,3.22,0,0,0-.81.18s-.08,0-.09,0c-.05-.22-.14-.1-.21,0a.39.39,0,0,1-.25.11,2.8,2.8,0,0,0-.51.11c-.13.05-.28,0-.43.07a2.92,2.92,0,0,1-.6.08l-.34.06c-.1,0-.22,0-.3.07h0c-.28,0-.56,0-.83.07a4.45,4.45,0,0,0-1,.17.18.18,0,0,1-.09,0,.88.88,0,0,0-.27,0c-.07,0-.12.1-.21.13a1.45,1.45,0,0,1-.37.06c-.09,0-.11,0-.11-.11a.12.12,0,0,0-.06-.08s-.06,0-.08,0,0,.1-.06.14a.16.16,0,0,1-.08.07.6.6,0,0,1-.13,0l-.9.07c-.17.13-.38,0-.58.12a1.91,1.91,0,0,1-.59,0c-.15,0-.19.1-.11.22s0,0,0,0,.13,0,0,.08l0,0a1,1,0,0,0,0,.11.32.32,0,0,0,.12,0,.11.11,0,0,0,.07-.07c0-.09,0-.11.11-.06a9.58,9.58,0,0,0,1.25.41,5.84,5.84,0,0,1,.6.15c.15.05.31.05.45.09a1.18,1.18,0,0,0,.56.08c.05,0,.08,0,0,.07s0,.07,0,.11h.15c0-.17.17-.14.28-.12a2.52,2.52,0,0,1,.35.1s.07,0,.09,0,.32,0,.48,0a.58.58,0,0,1,.42.09.22.22,0,0,0,.12,0,2.32,2.32,0,0,1,.74.13.61.61,0,0,0,.26,0c.32,0,.62.09.93.07.16.13.36,0,.54.12a2.13,2.13,0,0,0,.56.09s0,0,0,.08,0,0,0,0a.15.15,0,0,0-.16.14s.06,0,.09.05.11-.06.11-.18c.19-.07.35.05.53,0a.08.08,0,0,1,.06.06c0,.09.06.09.11.07.24-.09.45.06.67.09s.41.13.62.17.55.17.83.22l.11,0,.16,0s-.1,0-.11.07a.2.2,0,0,0,0,.15s.08,0,.12,0a.12.12,0,0,0,.05-.09c0-.09,0-.12.11-.09.44.15.89.29,1.33.45.26.09.5.22.76.33.08,0,0,.05,0,.08a.2.2,0,0,0,0,.11c.06,0,.14,0,.17,0s0-.1.08,0c.32.21.67.36,1,.59.12.09.31.08.35.28,0,0,.06,0,.09,0a.5.5,0,0,1,.35.07,3.47,3.47,0,0,0,.51.2l.22.1a.45.45,0,0,1,.26.58A.3.3,0,0,1,95,55l-.18.12s-.07.08,0,.14.09.13.14.13c.35,0,.29.36.42.55a.17.17,0,0,1-.09.24c-.1,0-.13.13-.21.14s0,.06,0,.11.19.11.24.23,0,.13,0,.16l-.46.24s-.11,0-.12,0c-.06-.22-.15-.09-.21,0s-.3.08-.46.1-.17,0-.15-.14-.06-.08-.11,0-.14.09-.05.18,0,.06,0,.06h-.13a5.31,5.31,0,0,0-.93.08,2,2,0,0,1-.77,0,15.09,15.09,0,0,0-1.89-.05H88c-.15,0-.29-.06-.44-.06s-.16,0-.14-.15,0-.12-.06-.12-.16.11-.11.18,0,.06,0,.09a.11.11,0,0,0,0,.19,7.65,7.65,0,0,0,.82.33s0,0,0,.05,0,.19.14.12.16,0,.26,0c.36.11.68.32,1.05.41.07.11.24.07.29.21a.24.24,0,0,1-.09,0c-.09,0-.11,0-.1.11s0,.09.09.09.11-.06.11-.19a.88.88,0,0,1,.5.21c.24.16.51.27.74.44l.17.13s0,.05,0,.07,0,.11,0,.12.14.05.15-.06,0-.07.07,0l1.24.76c.1.06.16.15.3.14s.21.11.32.17l.33.15a1.18,1.18,0,0,1,.4.32.19.19,0,0,1,0,.11,1.31,1.31,0,0,1,0,.26.81.81,0,0,0,.14.57.51.51,0,0,1,.06.37.31.31,0,0,1-.12.18,1.71,1.71,0,0,1-.22.11.2.2,0,0,0-.12.17.58.58,0,0,1-.34.55s0,0,0,.06,0,0,0,.05a.35.35,0,0,1-.28.55l-.21.05a2.31,2.31,0,0,1-.59.08H90.12c-.41,0-.82-.05-1.23-.08a5.54,5.54,0,0,1-1-.12,5.66,5.66,0,0,1-1.11-.26c-.28,0-.53-.15-.8-.13-.07,0-.08,0-.09-.1s0-.14-.15,0-.09.1-.14,0a2.47,2.47,0,0,1-.61-.12c-.2,0-.41-.08-.61-.14s-.36,0-.49-.08-.33,0-.45-.12a1.51,1.51,0,0,1-.71-.13.21.21,0,0,0-.15,0s-.07,0,0,.12a1.63,1.63,0,0,0,.41.37c.35.26.72.49,1.08.73.07,0,0,.09,0,.14s.06.17.18.11.09-.06.16,0l1.29,1c.32.24.62.5.94.74a5.54,5.54,0,0,1,.6.47c.06.06.07.09,0,.15s0,.08.06.09a3.06,3.06,0,0,1,.38.14,1.71,1.71,0,0,1,.55.48s0,0,0,0a.15.15,0,0,0-.16.14s.06,0,.09.05.11-.06.11-.18c.3.22.59.46.89.7,0,0,.1,0,.13.07s.29.23.24.47a3.64,3.64,0,0,0,0,.39.65.65,0,0,0,.26.62c.1.08.08.1,0,.11s-.11.1-.17.12a2.17,2.17,0,0,1-.22,0,1,1,0,0,0-.48.35.68.68,0,0,0-.07.24,2.16,2.16,0,0,0,0,.26c0,.32,0,.32-.33.32-.07,0-.15,0-.21,0l-.06,0-.3-.06a1.62,1.62,0,0,1-.33,0c-.29-.1-.59-.15-.89-.25,0,0-.08,0,0-.07a.21.21,0,0,0,0-.12.09.09,0,0,0,0-.07.1.1,0,0,0-.08,0,.22.22,0,0,0-.07.1c0,.06,0,.05-.07,0-.49-.17-1-.33-1.46-.54a3.25,3.25,0,0,0-.52-.18c-.14,0-.1-.17-.16-.22s-.16.11-.29,0-.57-.27-.86-.4a2,2,0,0,0-.39-.17c-.15,0,0-.07,0-.11a.11.11,0,0,0,0-.07s0-.07,0-.09a.09.09,0,0,0-.08,0c-.11.18-.26.11-.39,0a1,1,0,0,0-.44-.13c-.12,0-.24-.09-.37-.06a.11.11,0,0,0-.07.07c0,.11,0,.22.13.26a.29.29,0,0,1,.1.07c.3.27.57.56.89.81s.7.59,1,.88a3.59,3.59,0,0,1,.83.87,1.61,1.61,0,0,0,.18.19,12.79,12.79,0,0,1,1.06,1.31c.1.15.26.25.32.44a.24.24,0,0,1-.09,0c-.09,0-.11,0-.1.11s0,.09.09.09.11-.06.11-.19l.62.77s0,.06,0,.1,0,.11,0,.11a.21.21,0,0,1,.19.09,6.61,6.61,0,0,0,.63.76.22.22,0,0,1,0,.29.6.6,0,0,0-.21.44c0,.1-.08.13-.18.14s-.22-.06-.26,0,.06.16.05.23a1.09,1.09,0,0,1,0,.48c-.06.11,0,.31,0,.41s-.24.11-.33.22l-.14.14a.41.41,0,0,1-.31.13.46.46,0,0,0-.21,0,.58.58,0,0,1-.48-.08c-.23-.1-.47-.14-.7-.24l-.28-.13c-.09.13-.18-.07-.27,0l-1.1-.46c-.06,0-.13,0-.16-.08s0-.1,0-.16a.1.1,0,0,0,0-.08.09.09,0,0,0-.09,0c-.17.14-.17.14-.36,0l-.82-.41c-.09,0-.16-.14-.26-.18s-.12,0,0-.1a.08.08,0,0,0,0-.06.3.3,0,0,0,0-.11S81,76,81,76a.17.17,0,0,1-.26,0c-.33-.21-.67-.4-1-.6-.07,0-.16-.1-.18-.17s-.07-.12-.15,0,0,0-.07,0l-1.88-1.28a.8.8,0,0,1-.24-.2A.23.23,0,0,0,77,73.6a.47.47,0,0,1-.27-.14,3.66,3.66,0,0,0-.51-.37s0-.05,0-.18-.09,0-.08.07l0,0c.12,0,.19,0,.17-.14S76.33,72.83,76.24,72.91Z"/></svg>