<svg xmlns="http://www.w3.org/2000/svg" width="1626" height="1524" viewBox="0 0 1626 1524">
  <metadata><?xpacket begin="﻿" id="W5M0MpCehiHzreSzNTczkc9d"?>
<x:xmpmeta xmlns:x="adobe:ns:meta/" x:xmptk="Adobe XMP Core 5.6-c138 79.159824, 2016/09/14-01:09:01        ">
   <rdf:RDF xmlns:rdf="http://www.w3.org/1999/02/22-rdf-syntax-ns#">
      <rdf:Description rdf:about=""/>
   </rdf:RDF>
</x:xmpmeta>
                                                                                                    
                                                                                                    
                                                                                                    
                                                                                                    
                                                                                                    
                                                                                                    
                                                                                                    
                                                                                                    
                                                                                                    
                                                                                                    
                                                                                                    
                                                                                                    
                                                                                                    
                                                                                                    
                                                                                                    
                                                                                                    
                                                                                                    
                                                                                                    
                                                                                                    
                                                                                                    
                           
<?xpacket end="w"?></metadata>
<defs>
    <style>
      .cls-1 {
        fill: #ff2400;
        fill-rule: evenodd;
      }
    </style>
  </defs>
  <path id="Base_copy" data-name="Base copy" class="cls-1" d="M470.585,265.817c-3.686-12.428-9.265-24.291-11.419-37.165-2.279-13.617-6.188-26.77-10.468-39.85-1.668-5.1-.255-7.107,5.448-8.09,1.352-.233,1.927-0.481,2.161-1.992,0.926-5.985,2.54-7.415,8.079-6.291,3.013,0.611,4.9.092,5.755-2.737,0.791-2.621,2.69-1.811,4.387-1.847,1.257,0.66,2.657,1.612,2.253-1.108a3.224,3.224,0,0,1-.246-4.462c1.273-1.527,2.368.283,3.462,0.664,2.364,0.825,3,.235,3.426-2.306,1.146-6.788,3.454-7.477,8.613-2.969a11.4,11.4,0,0,1,2.091,2.138c8.364,12.66,21.229,21.069,30.752,32.643,5.336,6.487,10.769,12.918,16.529,19.023,3.374,3.573,5.937,8.327,12.6,7.575,4.845-.546,6.25,5.035,8.266,8.251,5.528,8.819,12.665,16.2,20.012,23.287a270.591,270.591,0,0,1,34.357,40.9c0.835,1.2,1.8,2.318,2.706,3.474,0.907,0.3,1.225,2.035,2.257,1.433,0.757-.441.7-1.757,0.075-2.69-1.273-10.586-4.663-20.695-7.313-30.944-4.448-17.2-6.816-34.667-9.082-52.25-1.828-14.184-2.262-28.323-2.962-42.537-0.484-9.832,0-19.656-.716-29.461-0.432-5.946-.861-11.9-1.029-17.855-0.147-5.19,1.03-6.129,5.844-4.848,2.749,0.732,4.861.606,6.186-2.276,0.765-1.663,2.66-2.78,3.978-2.545,6.157,1.1,8.455-5.069,13.147-6.586a2.128,2.128,0,0,0,.769-1.187c2.165-5.26,2.18-5.28,6.327-.965,2.359,2.455,4.642,4.984,6.959,7.479,2.371,1.884,2.684,4.888,4,7.345a33.379,33.379,0,0,0,1.593,3.259c-1.026-1.876-1.651-3.931-2.623-5.834-0.791-2.548-1.5-5.105-.963-7.816q-0.184-.963-0.37-1.928a16.133,16.133,0,0,1,.035-7c4.411-4.427,5.281-4.177,8.476,1.013,8.339,13.545,14.445,28.149,21.157,42.507a460.638,460.638,0,0,1,18,43.786c6.538,18.788,14.086,37.264,19.429,56.43,4.989,17.9,8.791,36.131,13.071,54.227,1.034,4.374,1.89,8.791,2.828,13.188,3.322,3.514,1.678,7.882,2.491,11.728-1.215-11.236.548-22.48,1.821-33.756,1.557-4.107,1.148-8.55,1.322-12.713,0.359-8.611,1.957-17.068,2.368-25.624a283.171,283.171,0,0,1,6.558-48.167c3.557-15.964,8.61-31.651,10.171-48.032,0.387-4.064.834-8.355-.054-12.243-0.9-3.923,1.376-5.207,3.4-7.349,3.194-3.384,8.992-3.936,10.207-9.4,2.9-13.051,5.316-26.235,8.842-39.115,2.379-8.695,4.251-17.526,6.944-26.133,0.719-2.3,1.736-4.246,4.6-4.387,2.972-.146,5.941-0.509,5.542,4-0.07.779-.082,1.786,0.973,2.015,0.915,0.2,1.422-.4,1.912-1.178a16.072,16.072,0,0,1,2.723-3.5c1.117-1,1.931-3.043,4.024-2.033,1.633,0.787,1.532,2.3,1.448,3.883a31.732,31.732,0,0,0,.412,4.59c2.076-.356,2.447-2.255,3.522-3.248,5.431-5.015,9.92-5.095,14.413.644,2,2.562,2.853,3.207,4.7,0a6.474,6.474,0,0,1,6.822-3.1c2.877,0.437,3.184,3.193,3.806,5.271a482.493,482.493,0,0,1,12.413,51.77c2.627,14.406,4.879,28.853,6.075,43.384,0.617,7.5,1.255,15.007,2.024,22.5,1.522,1.509,1.926-.152,2.64-0.932a59.9,59.9,0,0,0,2.1-13.9c0.323-8.7,2.167-11.536,10.227-12.946,6.088-1.066,8.452-4.25,10.747-9.662,6.658-15.7,11.824-31.87,17.233-47.989,1.089-3.244,2.55-7.026,6.933-7.707,2.566-.4,4.926-0.453,5.011,3.131-0.039,3.964,1.546,7.937-.062,11.885a3.843,3.843,0,0,0-.59,1.57c0,0.093.2-.043,0.176-0.437-0.039-.649,0,0.252.156-0.424,1.416-2.5,1.782-5.527,3.987-7.583,2.517-2.326,4.181-5.517,7.507-7.046,1.667-.765,3.126-2.007,4.687.032A5.131,5.131,0,0,1,929,90.369c-0.013-1.195,1.741-.857,2.539-1.646,1.837-1.062,3.649-1.435,5.586-.133a3.373,3.373,0,0,0,3.351.3c4.363-1.975,6.8-.294,7.638,4.7,2.013-2.294,3.842-4.577,6.5-3.7,2.766,0.915,3.741,3.868,3.727,6.445-0.107,18.909,1.558,37.753.873,56.721-0.639,17.715-2.47,35.3-3.823,52.922-0.867,11.292-3.15,22.494-5.134,33.677-2.7,15.208-6.506,30.264-8.336,45.565-1.34,11.2-.262,22.7-0.262,35.047,3.66-4.7,4-9.741,5.584-14.17,9.707-27.235,18.676-54.778,30.377-81.215,9.71-21.936,19.86-43.719,33.557-63.695,6.95-10.134,14.31-20.135,19.73-31.291a9.361,9.361,0,0,1,2.03-2.18c1.99-1.962,3.97-4.937,7-3.764,3.17,1.223,1.14,4.72,1.61,7.174a22.745,22.745,0,0,1,.18,3.009c2.77,0.623,2.91-1.821,3.66-3.188,3.27-6.014,7.58-6.5,12.32-1.24,0.95,1.761.03,3.126-1.07,4.318a7.722,7.722,0,0,0-2.19,4.617,2.111,2.111,0,0,1-.04.258,1.44,1.44,0,0,0,.09-0.23c0.62-4.711,3.68-6.525,7.94-6.968,4.8-.651,4.75,2.324,3.33,5.186-1.75,3.527-2.02,7.221-2.46,10.943a2.258,2.258,0,0,0,1.19,2.536c1.22,0.4,1.5-.856,1.99-1.689,2.03-3.447,2.81-7.366,4.25-11.031,0.88-2.235,1.24-4.735,4.55-5.175,3.26-.434,2.92,2.682,4.82,3.907,0.83,0.176,1.4-.787,2.21-1.211,4.29-2.248,7.45-.622,8.18,4.19,0.59,3.878-.42,7.705-1.2,11.331-2.48,11.511-2.31,23.261-3.88,34.83-2.17,16.09-2.73,32.406-7.43,48.164a74.156,74.156,0,0,0-2.51,11.643c9.81-3.318,15.73-10.619,22.02-17.78,4.52-5.154,10.4-9.106,15.48-13.8,6.59-6.081,12.95-12.4,19.48-18.547,4.33-4.079,7.02-3.707,10.14,1.353a3.66,3.66,0,0,0,2.06,1.975c6.01,1.583,9.87,6.175,14.44,9.884,2.98,2.417,6.8,3.853,10.35,5.49,4.1,1.886,5.12,4.962,3.81,8.961-5.36,16.3-8.21,33.194-12.02,49.86a181.042,181.042,0,0,1-10.19,32.433c-0.77,1.76-1.81,3.547-1.32,6.045,4.32-2.507,7.08-6.46,10.13-9.825,9.72-10.74,20.97-19.751,31.84-29.192,7.75-6.725,15.57-13.4,23.79-19.52,8.96-6.672,17.93-13.429,27.97-18.509,4.54-2.3,6.94-1.428,8.86,3.293,0.46,1.14.81,2.376,1.92,2.7,5.25,1.526,6.04,7.917,10.99,9.857,2.07,0.815.65,3.03,0.43,4.418-0.24,1.523-1.47,2.89-2.26,4.324-0.37.808-3.5-1.121-1.79,2.024,0.73,1.335-.54,3.419-0.31,5.209,0.06,0.4-.15,1.2.37,1.083,0.6-.137.46-1.059,0.67-1.643,0.55-2.811,2.83-3.723,5.08-4.672,1.42-2.423,3.94-3.358,6.29-4.429,1.29-.591,2.97-1.2,4.06.313s2.59,3.141.7,5.134c-0.49,2.627-2.19,4.7-3.22,7.048,0.14-.1-0.52.823,0.09,0.043a8.886,8.886,0,0,0,.56-1.255,23.132,23.132,0,0,1,4.39-3.818c1.38-1.518,2.24-3.7,4.7-3.849,4.52-.278,6.75,2.615,5.15,7.132a256.057,256.057,0,0,1-22.15,46.758c-12.48,20.748-26.47,40.459-40.1,60.424a22.767,22.767,0,0,0-3.92,7.714,121.378,121.378,0,0,0,19.24-6.1c6.1-2.483,11.86-6.3,19.15-5.19,4.12,0.628,6.55,2.4,8.24,6.055,1.65,3.557,3.18,7.229,6.35,9.9,3.1,2.611,2.99,5.783,1.62,9.433-2.97,7.926-9.87,13.233-13.39,20.719-1.71,3.637-2.91,7.514-4.8,12.5,8.19-4.507,15.18-8.274,22.1-12.177,9.82-5.546,20.31-9.533,30.71-13.821,15.13-6.235,30.55-11.8,45.25-19.052a8.532,8.532,0,0,1,8.51.162c1.58,0.894,2.92,2.316,2.1,3.809-1.73,3.143-.8,3.731,2.3,3.492,3.15-.242,3.28,1.5,2,3.7-0.66,1.135-2.54,1.093.37,2.844a23.458,23.458,0,0,1,10.54,14.975c0.39,1.681,1.23,1.637,2.31,1.835,5.96,1.1,8.05,4.851,5.05,9.935a168.472,168.472,0,0,1-19.46,27.324c-4.4,4.884-7.61,10.8-12.48,15.306-9.44,8.725-18.4,17.911-28.68,25.792-9.76,7.488-18.83,15.906-28.77,23.236-1.27.936-2.15,2.392-3.63,4.08,2.52,0.055,4.27.2,6.25-.453a240.983,240.983,0,0,1,47.72-10.131c8.04-.949,15.95-2.642,24-3.46,1.83-.186,3.51.215,5.23,0.067,3.99-.343,4.56,2.191,3.11,4.611-1.94,3.226-.68,3.061,2.03,3.657,5.68,1.25,8.73,6.27,8.23,13.956-0.2,3.034.26,5.33,2.13,7.513-1.14,1.739.95,4.406-1.39,5.776,2.05,0.3,4.65-.71,6.57,1.419,2.62,2.48,2.05,5.25.01,7.454a21.282,21.282,0,0,0-3.34,5.667c9.56-.723,18.85-1.842,28.2-2.367a287.488,287.488,0,0,0,38.62-4.407c4.71-.914,8.49-0.666,9.66,5.53,0.94,4.982,3.38,9.72.74,14.809-0.36.68-.54,1.4,0.09,1.734,5.27,2.773,3.69,8.1,4.57,12.409,1.58,0.538,2.06-1.19,3.12-1.288,1.68-.153,3.87-1.962,4.83-0.5a6.357,6.357,0,0,1,.86,6.021,31.129,31.129,0,0,1-12.45,15.042c-13.83,8.956-26.68,19.449-41.22,27.246a286.8,286.8,0,0,1-29.23,13.261c-9.67,3.863-18.59,9.257-28.26,13.045-7.05,2.762-14.23,5.183-21.28,7.947-1.31.514-3.98,0.312-3.48,2.579,0.35,1.545,2.53,1.135,4.02,1.08q13.875-.519,27.76-1.04c1.16-.043,2.73-0.479,3.43.1,4.31,3.551,9.69,3.308,14.64,4.566a2.532,2.532,0,0,1,2.06,1.938c0.95,5.716,5.23,5.855,9.68,6.063,22.77,1.06,45.43,4.4,68.32,2.965a11.6,11.6,0,0,1,5.25,1.072c2.16,0.987,2.42,2.411,2.44,4.3,0.03,2.081-1.19,3.023-3.06,3.047a5.308,5.308,0,0,0-3.5,1.388,0.441,0.441,0,0,0,.03.4,1.479,1.479,0,0,0,.4.3c0.6,2.86,2.74,4.037,5.25,4.8,1.73,0.07,3.71-.049,4.74,1.475,0.49,0.725-.8,1.527-1.82,1.716-3.85.285-3.91,3.112-4.01,6.068,1.76-.12,2.02-2.908,4.08-2.248,5.79,4.709,5.51,9.352-1.33,12.942-4.79,2.512-9.05,5.984-14.23,7.781-1.13.393-3,.768-2.22,2.565,0.54,1.264,1.78.555,2.96,0.211,4.2-1.223,8.46-2.251,12.75-3.108a34.715,34.715,0,0,1,6.33-.359,3.62,3.62,0,0,1,3.4,2.5c0.71,1.671-.35,2.822-1.54,3.818-5.29,4.425-10.74,8.768-17.19,11.259-17.09,6.6-33.65,14.6-51.23,19.927-16.03,4.864-32.46,8.075-48.91,11.17-15.84,2.979-31.66,5.994-47.69,7.691-7.49.792-15.09,1-22.25,3.757-11.66,1.977-23.5,2.5-35.22,4.123-4.78.662-9.63,2.237-14.63,1.687-2.13-.235-2.1,1.022-1.29,2.5,15.09,7.25,31.29,10.721,47.59,13.618,8.12,1.442,16.4,1.9,24.6,2.892a11.274,11.274,0,0,1,2.91,1.265c3.02,0.754,6.26.42,9.16,1.824,19.9,0.6,39.15,4.862,58.35,9.79,20.51,5.265,40.88,10.827,60.38,19.23,8.91,3.836,16.7,9.66,25.42,13.764,4.87,2.289,9.81,4.445,14.85,6.326,6.92,2.587,7.22,2.851,6.74,10.859-0.28.4-.66,0.732-0.93,1.133-0.95,1.422-4.1.683-3.65,3.183,0.4,2.176,2.95,2.1,4.55,3,0.72,1.094,1.48,2.162,2.14,3.287,3.55,6.046,2.86,8.082-3.64,10.9-0.12,1.1.68,1.252,1.47,1.53a3.671,3.671,0,0,1,2.82,3.445c0.29,2.4-1.37,2.755-2.6,3.541a21.4,21.4,0,0,1-10.34,2.914c-13.67.761-27.13,4.137-40.93,3.229-14.91-.981-29.84-0.985-44.77-0.869-7.17,1.051-14.16-.388-21.19-1.4l0.19,0.216-0.17-.233c-0.27,1.185-3.08.453-2.01,2.656,9.66,3.956,19.26,8.037,28.97,11.842,18.03,7.068,33.92,18.039,50.46,27.777,6.93,4.079,14.4,7,21.34,11.009,3.53,2.038,5.24,4.806,4.23,8.6-0.99,3.712.35,6.528,2.24,9.368,2.51,3.769.8,9.026-3.65,9.91-2.15.427-2.41,1.007-2.64,2.944-0.38,3.218-1.07,6.729-4.49,8.178-2.03.86-.4,0.99-0.12,1.69,1.4,3.45,1.2,6.31-2.93,7.86a33.67,33.67,0,0,1-11.95,2.47c-14.98.01-29.99,0.57-44.93-.16a236.111,236.111,0,0,1-39.83-5.2c-17.18-3.82-34.34-7.756-51.53-11.548-2.9-.639-5.9-0.8-8.85-1.181a32.276,32.276,0,0,0-5.09-1.3c-1.99-.276-2.11.964-1.04,2.395,13.59,11.072,29.16,19.3,42.98,30.052,16.5,12.83,33.11,25.5,48.86,39.25a115.841,115.841,0,0,0,10.91,8.48c2.2,1.5,2.61,3.03,2.41,5.59-0.43,5.8-1.65,11.94,4.01,16.36,1.74,1.36.44,2.02-.87,2.76a6.018,6.018,0,0,1-2.86.47c-8.05.54-12.96,6.76-11.53,14.55,0.38,2.05.1,3.22-2.49,3.74-8.07,1.59-15.91.22-23.46-2.01a457.318,457.318,0,0,1-50.48-18.56c-6.31-2.7-12.41-5.96-18.77-8.65-4.1-1.73-8.09-3.59-12.56-4.1-4.56-1.44-5.43-1.1-5.12,2.06,9.13,7.99,18.04,16.24,27.44,23.88,13.59,11.06,24.58,24.6,35.28,38.15,7.18,9.1,13.73,18.8,21.1,27.83,2.07,2.53,4.13,5.07,6.31,7.51,2.03,2.26,2.79,4.32.3,6.86a7.541,7.541,0,0,0-2.22,4.3c-0.24,3.26-2,3.93-4.66,3.49-1.94-.32-3.44.26-2.24,2.18,3.29,5.31-1.79,10.21-.38,15.34a1.184,1.184,0,0,1-.26.9c-4.64.42-6.34,5.68-10.41,6.57-4.02.89-8.02,1.71-12.46-.15-6.55-2.74-13.76-3.85-20.43-6.35a346.5,346.5,0,0,1-59.15-29.35c-20.94-12.78-40.92-26.94-60.96-40.97-8.45-5.92-16.98-12.14-24.28-19.67-0.76-.79-1.41-2.36-2.7-1.33-1.21.98-.43,2.64,0.21,3.6,2.82,4.24,5.79,8.39,8.84,12.47a215.306,215.306,0,0,1,28.63,53.03c4.86,12.78,9.2,25.77,17.53,36.92a5.33,5.33,0,0,1,.39,6.37,7.937,7.937,0,0,0-1.06,7.37c1.46,4.2-2.95,9.45-8.48,11.12-9.65,2.93-13.69,10.82-10.32,20.37,4.02,11.37,9.2,22.31,12.31,34.04,0.71,2.69,3.48,4.76,4.82,7.37,3.11,6.06,4.27,11.45-.07,14.73-0.65.49-1.24,1.35-1.94,1.44-7.35,1.01-12.07,4.67-13.25,12.35-0.22,1.42-1.76,1.8-3.21,1.76-1.78-.04-3.57-0.01-5.41-0.01-0.56,2.32,2.78,5.53-.65,6.61-3.32,1.04-7.22,1.35-10.51-1.15-6.98-5.3-14.17-10.35-20.92-15.92-3.32-2.74-7.09-4.09-11.54-5.94,2.01,5.39,2.77,10.44,4.96,15.48a143.032,143.032,0,0,1,10.33,37.05c0.13,0.92.23,2.34-.29,2.79-4.33,3.76-6.75,9.4-11.6,12.45-2.37-2.25-1.11-6.28-4.77-7.35-0.66,1.42-.18,2.69.26,3.92,0.9,2.55,2.87,5.48-2.28,5.56a0.986,0.986,0,0,0-.66.67c-0.92,5.37-5.51,3.77-8.81,4.96-4.86,1.76-7.95.05-10.69-3.62-6.22-8.35-12.99-16.2-21.51-22.3-4.43-3.18-7.25-7.94-11.59-11.17-1.94-2.76-3.77-5.65-7.14-6.95-0.6-.37-1.21-0.73-1.82-1.1-1.04-.66-1.04-2.13-2.14-2.76-0.39-.36-0.79-0.72-1.18-1.08-0.71-1.21-2.27-1.17-3.14-2.15-0.9-.91-1.28-2.12-2.25-4.15a19.749,19.749,0,0,0,3.31,5.66,49.039,49.039,0,0,0,1.29,8.61c3.11,9.38,4.71,19.08,6.09,28.82,2.06,14.49,3.46,29.1,7.34,43.27,0.98,3.6-.09,5.57-3.22,7.11a131.318,131.318,0,0,1-13.05,5.94c-3.45,1.26-5.66.43-7.94-1.84-2.09-2.08-4.22-4.1-6.33-6.15a1.41,1.41,0,0,0-1.84-.8c-0.45.21-.34,1.04,0.11,1.54-0.11,4.13,3.45,7.18,3.33,11.37-0.04,1.05.94,2.16-.22,3.12-1.49,1.22-2.49-.17-3.4-0.89-2.29-1.8-4.42-3.79-6.61-5.7-0.89-.56-1.2-1.64-2.02-2.21a1.8,1.8,0,0,0-.06-0.36,1.756,1.756,0,0,0-.06.4c0.67,0.65,1.58,1.17,1.01,2.32-0.4,2.74.91,5.21,1.2,7.84,0.17,1.56.01,2.92-1.75,3.68-1.66.71-2.51,0.12-3.78-1.09-9.69-9.18-16.46-20.71-25.17-30.65-8.04-9.19-14.25-19.81-22.58-28.75-0.58-.73-0.6-1.75-1.31-2.41a2.43,2.43,0,0,1-.62,1.38c-1.12,6.9.97,13.64,1.01,20.48,0.03,7.33-3.58,9.7-10.45,11.89-8.02,2.55-15.52.32-23.234,0.46-4.066.07-7.042-2.07-8.917-5.42-5.983-10.69-11.646-21.57-17.7-32.22-4.143-7.29-8.435-14.53-13.2-21.42-6.355-9.19-10.727-19.47-16.619-28.88-7.187-11.47-10.737-24.53-16.625-36.58-2.643-5.41-3.158-11.96-5.264-17.82a88.507,88.507,0,0,0-5.917-13.56c-2.751-4.43-2.145-9.85-4.2-14.43,0.686,0.05-.3.25-0.138-0.4l-0.105-.03a23.471,23.471,0,0,1,1.109,3.15c2.263,6.5,1.411,13.31,2.153,19.96,1.364,14.58,3.436,29.13,3.909,43.74,0.574,17.73.524,35.49-.269,53.26-0.4,8.99-2.018,17.8-2.5,26.74-0.53,9.78-4.73,18.73-6.317,28.28-1.827,10.99-5.369,21.7-4.741,33.07,0.449,8.14-5.363,12.73-10.78,17.28-1.185.99-3.621,1.71-5.045,0.09-2.62-2.96-5.773-2.42-8.627-1.31-5.024,1.97-10.543,2.24-15.347,4.95s-7.257-.47-9.26-4.26c-2.134-2.57-1.628-6.33-3.944-8.82a3.557,3.557,0,0,1-1.949-3.21c-1.138-3.37-3.965-5.84-4.864-9.33q-2.639-7.845-5.278-15.69c-1.269-1.63-1.226-3.67-1.728-5.54-0.63-2.36-1.663-2.8-3.052-.46a0.414,0.414,0,0,0-.248.59,10.874,10.874,0,0,1-1.739,4.41c-2.064,3.17-1.314,6.89-2.033,10.32-2.182,10.41-13.391,15.8-22.347,10.73-2.045-1.46-4.631.36-6.672-1.11l0.024,0.01c-2.775-.93-6.408,1.17-8.434-2.4-0.264.17-.059,0.4-0.086,0.6-0.213,1.55-1.539,2.06-2.6,2.81l0.017-.02c-0.626,2.02-2.772,1.12-3.955,2.07-5.371-.95-5.9-6.03-6.482-9.54-2.083-12.65-6.061-24.91-6.987-37.84a94.035,94.035,0,0,0-3.869-20.67c-2.093-6.79-1.274-13.6-2.061-20.37-0.83-7.13-.51-14.4-0.693-21.61-0.363-4.58-1.015-9.15-.429-13.74,0.089-1.37-.034-2.75.121-4.03-0.033-.77-0.689-0.37-0.5-0.16,0.833,0.87.238,2.09,0.391,3.17-0.488,1.9.179,4.17-1.779,5.6a547,547,0,0,1-28.067,77.59,389.243,389.243,0,0,0-16.648,42.42c-2.305,7.29-6.189,9.87-14.124,5.69a12.489,12.489,0,0,0-11.127-.56c-7.761,3.34-12.2,1.09-13.7-7.35-0.164-.93.317-2.17-0.879-2.59s-1.591.89-2.324,1.46c-3.17,2.49-3.464,6.63-5.581,9.77-1.457,2.16-2.7,4.51-4.292,6.62-5.74,7.61-9.7,8.92-18.056,5.81-2.184-.82-1.867-2.76-1.885-4.62-0.014-1.41.28-3.4-1.4-3.91-1.229-.38-2.421.93-3.277,1.95-2.555,3.06-5.163,4.83-9.17,2-3.113-2.19-5.852,1.5-9.192,1.17-3.49-.35-4.954-1.25-5.286-4.82-1.039-11.19-1.457-22.39-1.886-33.62-0.488-12.73-.534-25.44-0.668-38.17-0.105-9.99,2.061-19.71,3.315-29.53,0.352-2.76.5-5.07-1.67-8.22-1.766,4.18-3.555,7.61-4.656,11.25-1.138,3.75-3.095,6.55-6.7,8-3.35,1.35-6.76,2.44-8.984,5.64-0.46.66-1.778,1.67-2.594,0.99-4.556-3.81-5.848.72-7.554,3.08-6.467,8.94-12.631,18.1-19.06,27.06a73.18,73.18,0,0,1-6.554,7.51c-8.534,9.01-15.022,19.7-23.75,28.55-5.084,5.16-14.447,5.96-19.41,1.1-0.545-.54-1.769-0.67-1.443-1.66,1.125-3.41-.713-2.78-2.632-2.01-7.351,2.92-12.971-.56-13.435-8.51-0.175-2.97-1.164-3.6-3.666-2.01a10.392,10.392,0,0,0-3.675,3.9,5.832,5.832,0,0,1-6.7,2.87c-2.717-.61-2.936-3.13-3.036-5.61-0.415-10.25,2.482-19.99,4.321-29.91,1.285-6.92,2.655-13.85,4.038-20.74,1.837-9.14,5.053-18.04,8.006-26.93,2.621-7.89,5.673-15.64,8.354-23.52,3.626-10.66,8.088-21.04,12.385-31.46,0.807-1.96.921-3.42-.619-5.1a347.108,347.108,0,0,1-40.888,34.95c-5.545,4.01-9.678,9.96-14.515,14.96-5.374,5.57-7.8,5.48-13.06-.29a2.529,2.529,0,0,0-.987-0.84c-4.418,2.24-8.689-1.96-13.389.07-5.867,2.54-7.875.7-7.847-5.83-5.71-.4-8.269,4.51-12.016,7.3-5.044,3.77-9.766,7.97-14.643,11.96a12.886,12.886,0,0,1-7.338,2.52c-3.648.32-5.777-2.13-5.258-4.92,0.6-3.23-.879-2.82-2.72-3.04-3.6-.45-6.977-0.82-7.97-5.59-0.262-1.26-3.676-1.75-5.51-2.82-2.932-1.71-7.271-1.52-8.268-5.97a1.973,1.973,0,0,0-1.168-.74c-6.914-2.58-8.705-6.49-6.263-13.78a276.958,276.958,0,0,1,24.664-54.29c1.92-3.22,3.314-6.74,5.127-10.03,1.232-2.23,3.528-4.07.65-6.81a6.531,6.531,0,0,0-8.646-.87c-4.605,2.85-8.81,6.36-13.483,9.08-12.428,7.22-23.938,16.09-37.436,21.36-3.319,1.3-7.049,1.66-10.634,2.13-2.235.29-4.657-.31-4.783-3.11-0.148-3.3-1.7-4.96-4.74-5.59-6-1.23-5.864-6.85-7.785-10.98-0.379-.81.523-2.01-1.694-1.85-4.859.36-5.876-1.22-4.81-6.06,0.176-.8.38-1.6,0.623-2.38,0.474-1.53,2.1-3.41.726-4.58-1.914-1.64-3.141.94-4.446,1.89-2.328,1.69-4.668,2-6.765.19-2.038-1.76-1.583-4.35-.514-6.42,2.631-5.08,5.093-10.35,8.424-14.96,11.791-16.34,24-32.37,35.157-49.16,1.686-2.54,4.6-4.19,5.705-7.23,1.066-3.06-.341-3.55-2.922-2.82-6.179.66-11.053,4.27-15.964,7.51-3.983,2.63-6.643,1.5-8.465-2.08a15.565,15.565,0,0,0-5.306-5.63c-2.8-1.99-4.621-4.27-3.936-8.16,0.923-5.23-3.839-7.69-6.407-11.01-3.65-4.72-3.772-6.92,1.1-10.8,4-3.19,8.206-6.11,11.668-9.98a26.351,26.351,0,0,0,4.751-7.49c-5.275-.23-9.471,2.13-13.58,4.08a535.515,535.515,0,0,1-75.22,28.92c-4.647,1.4-9.383,1.67-14.083,2.43a7.492,7.492,0,0,1-7.092-2.7c-1.792-2.46,1.345-3.92,2.823-5.56a2.263,2.263,0,0,0,.825-2.23c-2.092-.3-3.766.96-5.626,1.47a5.1,5.1,0,0,1-5.973-2.27c-1.387-2.13.6-3.54,1.83-4.58,2.432-2.04,3.916-4.69,6.336-7.14-6.058-.81-12.108,5.83-16.843-1.59-0.668-1.76.221-3.02,1.393-4.72-1.264,1.32-1.572,3.13-3.25,3.44-3.7-.76-4.21-3.06-2.966-6.19,0.244-.61.618-1.18,0.835-1.8,0.928-2.65,4.947-4.99,3.659-7.12-1.765-2.91-4.309,1.53-6.927,1.32-1.882-.14-3.774-0.01-4.808-1.85a5.412,5.412,0,0,1,0-5.54c3.374-6.64,9.3-10.51,15.053-14.6,9.415-6.68,18.515-13.72,26.049-22.96-5.905,1.5-11.806,3.01-17.716,4.49-3.324.83-6.637,1.74-10.007,2.32-2.107.37-4.648,0.53-5.792-1.78-1.18-2.38.027-4.43,1.892-6.16,0.8-.74,2.079-1.12,2.275-2.65-2.183-1.22-4.464-.02-6.659-0.22-3.077-.28-5.892-0.84-4.112-5.1a3.229,3.229,0,0,0-.306-3.26c-7.491-11.88-3.554-16.27,6.307-25.11-3.157.53-5.488,0.92-7.819,1.31-1.965.33-4.221,1.72-5.257-1.4-0.812-2.44-1.166-4.67,1.064-6.82,4.352-4.19,9.592-7.17,14.634-10.22,9.6-5.8,17.6-13.66,26.905-19.73,9.911-6.48,18.935-14.21,29.256-20.12,2.944-1.68,6.35-3.921,5.06-8.962-0.722-2.825,1.567-5.284,4.366-6.523,3.431-1.518,6.875-3.038,10.414-4.266,2.591-.9,3.138-2.589,2.687-4.933-0.183-.954-1.622-1.263-3.9-0.843a559.869,559.869,0,0,1-66.368,8.388c-8.232.52-16.546-.114-24.756,0.571-12.315,1.029-24.582.158-36.869,0.06-3.515-.029-7.406-0.552-7.753-4.439-0.314-3.524,2.824-5.408,6.475-6.171,3.732-.779,8.146-0.1,10.859-4.291-6.357-.8-14.689,2.658-18.248-2.66-2.687-4.017-5.1-11.231-.546-17.235-7.606-.433-8.57-1.572-6.347-8.408a3.323,3.323,0,0,0-.481-3.512c-3.081-4.4-2.741-6.075,1.889-8.845,3.061-1.832,6.294-3.391,9.519-4.926,13.673-6.5,25.806-15.832,39.927-21.543,11.169-4.517,22.614-8.164,34.121-11.649,8.8-2.666,17.637-5.214,26.457-7.815a3.635,3.635,0,0,1,1.269-1.409c1.045-.532,2.236-0.619,3.27-1.045-0.932-.321-1.821.145-2.708-0.01a17.562,17.562,0,0,1-6.779-1.3l-0.433-.134-0.446.087c-1.538-1.162-3.637.344-5.119-1.08-19.464-2.424-38.44-7.208-57.491-11.679-4.635-1.088-9.579-.835-14.376-1.263-6.7-.6-9.832-4.469-7.837-10.767a11.853,11.853,0,0,0-.448-8.091c-0.215-.621-0.9-1.263-0.794-1.779,0.769-3.807.99-6.7-4.317-7.525-2.181-.339-1.111-5.54,1.966-7.157,3.7-1.943,5.755-3.438,2.833-8.225-2.344-3.839,1.867-5.857,4.914-6.914,4.657-1.616,9.53-2.6,14.292-3.92,4.088-1.134,8.351-1.978,11.337-5.921-5.832-3.555-12.488-4.731-18.62-6.166-10.033-2.346-19.268-6.611-28.974-9.645-5.454-1.7-11.22-2.091-16.492-4.7-7.153-3.543-9.145-13.608-3.264-19.366,2.34-2.291,2.292-3.763-.545-5.219-2.779-1.427-2.967-3.856-2.923-6.627,0.076-4.679,1.012-9.3-3.681-13.171-3.279-2.7.2-5.616,2.613-6.978a58.446,58.446,0,0,1,19.417-6.809c10.561-1.728,21.12-3.494,31.631-5.5,3.87-.738,7.9-0.253,11.662-1.749,0.937-.373,2.4.547,2.7-1.265,0.258-1.514-.579-1.983-1.853-2.38-11.938-3.709-22.322-11.116-34.474-14.4-5.582-1.508-10.7-4.321-15.7-7.251-1.847-1.083-4.258-1.848-3.089-4.739,1.026-2.532,2.93-4.025,5.84-3.57,3.557,0.557,7.095,1.239,10.653,1.8,1.058,0.167,2.523.789,2.839-.913,0.224-1.21-1.03-1.489-1.935-1.86a83.692,83.692,0,0,1-13.387-7.357c-4.155-2.672-4.9-7.253-1.474-10.736,1.694-1.721,2.165-3.019,1.2-5.532-3.38-8.832,2.1-15.438,11.512-14.943,4.656,0.244,9.377-.737,15.1-1.257a91.8,91.8,0,0,0-15.028-9.68c-3.278-1.613-3.056-3.588-.8-5.46,3.041-2.525,3.741-4.573.166-7.174-1.587-1.155-2.763-2.861-4.211-4.226-1-.937-1.418-2.283-0.679-3.1,0.848-.935,1.893-2.188,3.775-1.424,2.395,0.973,4.835,2.208,7.7,1.313-0.238-4.552-9.62-6.256-4.112-12.65,3.1-3.6,5.535-8.08,11.383-8.135-2.193-2.862-4.06-5.83-2.488-8.546,1.4-2.424,4.844-2.289,7.657-2.312,9.478-.078,18.966.08,28.43-0.309,6.422-.263,12.9-0.305,19.248-1.62,2.66-.55,5.243.594,7.859,0.534,22.036-.5,43.59,3.2,65.109,7.287a27.7,27.7,0,0,0,3.972.191c2.873,0.861,5.862.039,8.753,0.588,2.061,0.285,4.051.993,6.571,1.1-1.63-1.843-3.88-2.4-5.292-3.991-0.613-1.277-1.806-1.993-2.81-2.89-3.727-4.062-8.856-6.169-13.155-9.449-10.633-8.112-19.8-17.972-30.715-25.738-0.534-.381-0.891-1.014-1.433-1.375-10.61-7.068-12.333-12.023-9.1-23.922,0.954-3.516-.281-7.81,4.719-9.233,0.391-.111.758-1.562,0.574-2.237-1.307-4.791,2.305-7.841,4.365-11.123,1.628-2.594,5.195-2.3,8.173-1.122,8.737,3.444,18.054,3.948,27.182,5.444,1.439,0.236,2.89.56,3.47-.66,0.485-1.02-.945-1.945-1.777-2.678-7.942-6.99-16.307-13.553-23.778-21.012-9.484-9.47-18.648-19.265-28.185-28.7-2.244-2.219-5.145-2.746-7.6-4.325-3.445-2.213-5-4.661-2.785-8.616,0.535-.953,1.308-1.949.98-3.251-0.381-1.511-2.036-3.3-.252-4.527,2.013-1.387,4.088-.16,5.922,1.091a4.005,4.005,0,0,0,1.279.2c-0.281-4.984,2.435-7.844,6.258-10.8a8.832,8.832,0,0,0,2.836-9.093c-1.578-4.963.05-7.339,5.319-7.873,2.085-.212,3.9.613,5.82,1.034,11.287,2.475,22.758,4.349,33.8,7.657a332.03,332.03,0,0,1,51.106,20.337c1.474,0.671,2.913,1.552,4.559,1.611,2.165,0.078,4.569,1.007,6.215-1.4,1.758-2.565,3.873-5.06,1.16-8.247-9.439-12.162-18.661-24.451-27.32-37.219-8.67-12.788-15.751-26.756-27.02-37.747-5.4-5.27-5.213-8.029-.107-13.354,3.158-3.293,2.965-8.031,5.452-11.787,1.834-2.77,4.175-4.149,6.273-3.523,3.144,0.939,2.513.533,2.179-2.023-0.246-1.889-2.046-4.662.707-6.1,2.653-1.39,5.441-.472,7.989.776a198.011,198.011,0,0,1,40.272,26.8c13.12,11.04,26.369,21.925,39.585,32.85a6.567,6.567,0,0,0,1.83.735c1.039-.049,1.781.594,3.093,1.484a5.982,5.982,0,0,1-1.959-2.85c-3.857-2.182-3.672-4.365-.694-7.525,3.119-3.311,5.807-6.716,6.7-11.9,0.8-4.668,6.18-6.89,10.694-8.774,4.534-1.892,8.395-1.9,12.641,1.5,6.913,5.541,13.338,11.84,21.5,15.707,2.053,0.973,3.974,2.344,6.634,1.819-0.633-3.673-3.113-6-5.036-8.572-12.414-16.584-25.5-32.612-36.97-49.97-8.5-12.864-17.021-25.638-24.217-39.262a326.351,326.351,0,0,1-17.08-36.777,14.476,14.476,0,0,0-1.852-4.031c-5.382-6.658-1.387-11.228,3.5-14.143,3.556-2.123,7.991-2.672,10.788-6.239,1.372-1.748,3.411-.646,5.164-0.716,0.779,0.185,2.254.105,2.161-.132-0.442-1.121-.638-2.488-1.832-3.2-1.785-2.746-1.935-4.851,2.013-5.59a8.616,8.616,0,0,0,3.2-1.241c8.55-5.835,11.122-5.846,17.974,1.164A113.061,113.061,0,0,0,404.211,213.5c15.235,9.523,28.6,21.2,40.947,34.15a55.184,55.184,0,0,0,7.077,6.753c6.728,4.911,10.031,13.11,17.167,17.57a10.677,10.677,0,0,1,3.189,2.306,6.967,6.967,0,0,1,1.892,2.363c-0.4-1.358-1.328-2.32-1.863-3.494A43.233,43.233,0,0,1,470.585,265.817Z"/>
</svg>
