<svg id="Layer_1" data-name="Layer 1" xmlns="http://www.w3.org/2000/svg" viewBox="0 0 531.81 117.08"><defs><style>.cls-1{fill:#0b0506;}</style></defs><title>beezoo</title><path class="cls-1" d="M66.32,33.16A33.2,33.2,0,0,0,33.16,0H0V116.84H33.16A33.14,33.14,0,0,0,54.61,58.42,33.1,33.1,0,0,0,66.32,33.16ZM50.53,83.69a17.39,17.39,0,0,1-17.37,17.37H15.79V66.32H33.16A17.39,17.39,0,0,1,50.53,83.69ZM15.79,50.53V15.79H33.16a17.37,17.37,0,0,1,0,34.74Z"/><polygon class="cls-1" points="187.65 116.84 253.97 116.84 253.97 101.05 203.44 101.05 203.44 66.32 253.97 66.32 253.97 50.53 203.44 50.53 203.44 15.79 253.97 15.79 253.97 0 187.65 0 187.65 116.84"/><polygon class="cls-1" points="93.09 116.84 159.41 116.84 159.41 101.05 108.88 101.05 108.88 66.32 159.41 66.32 159.41 50.53 108.88 50.53 108.88 15.79 159.41 15.79 159.41 0 93.09 0 93.09 116.84"/><polygon class="cls-1" points="345.97 0 345.97 0 287.02 0 287.02 15.79 331.09 15.79 286.28 105.42 286.28 105.42 280.57 116.84 291.23 116.84 291.23 116.84 350.18 116.84 350.18 101.05 306.11 101.05 350.93 11.43 350.93 11.43 356.64 0 345.97 0"/><path class="cls-1" d="M410.1,0a33.2,33.2,0,0,0-33.16,33.16V83.69a33.16,33.16,0,0,0,66.32,0V33.16A33.2,33.2,0,0,0,410.1,0Zm17.37,83.69a17.37,17.37,0,0,1-34.74,0V33.16a17.37,17.37,0,0,1,34.74,0Z"/><path class="cls-1" d="M498.65.23a33.2,33.2,0,0,0-33.16,33.16V83.92a33.16,33.16,0,0,0,66.32,0V33.39A33.2,33.2,0,0,0,498.65.23ZM516,83.92a17.37,17.37,0,1,1-34.74,0V33.39a17.37,17.37,0,1,1,34.74,0Z"/></svg>