<svg id="Layer_1" data-name="Layer 1" xmlns="http://www.w3.org/2000/svg" viewBox="0 0 5776.67 1497.32"><defs><style>.cls-1{fill:#73a6fc;}.cls-2{fill:#94ed6b;}.cls-3{fill:#ebb54a;}.cls-4{fill:#e0533b;}</style></defs><title>sail_logo</title><polygon class="cls-1" points="5052.67 24.37 4690.67 24.37 5052.67 386.37 5414.67 24.37 5052.67 24.37"/><polygon class="cls-1" points="5052.67 1472.37 4690.67 1472.37 5052.67 1110.37 5414.67 1472.37 5052.67 1472.37"/><polygon class="cls-2" points="4327.17 384.81 4327.17 749.43 4327.17 1111.43 4689.17 748.37 4327.17 384.81"/><polygon class="cls-3" points="4690.67 24.37 4327.17 24.37 4690.42 386.4 5052.17 748.43 5052.67 386.37 4690.67 24.37"/><polygon class="cls-4" points="4690.42 1110.37 4327.17 1472.37 4690.67 1472.37 5052.67 1110.37 5052.17 748.37 4690.42 1110.37"/><polygon class="cls-4" points="4690.67 386.37 4327.17 24.37 4327.17 384.87 4328.73 386.37 4689.17 748.37 5052.17 748.37 4690.67 386.37"/><polygon class="cls-3" points="4689.17 748.37 4328.17 1110.37 4327.17 1111.43 4327.17 1472.43 4689.92 1110.37 5052.17 748.37 4689.17 748.37"/><polygon class="cls-1" points="5051.17 1472.37 5413.17 1472.37 5051.17 1110.37 4689.17 1472.37 5051.17 1472.37"/><polygon class="cls-1" points="5051.17 24.37 5413.17 24.37 5051.17 386.37 4689.17 24.37 5051.17 24.37"/><polygon class="cls-2" points="5776.67 1112.53 5768.01 1103.37 5770.17 411.54 5776.67 411.54 5776.67 1112.53"/><polygon class="cls-2" points="5775.67 1112.2 5776.17 1112.75 5776.67 384.5 5412.92 748.43 5775.67 1112.2"/><polygon class="cls-3" points="5413.17 1472.37 5776.67 1472.37 5413.42 1110.37 5052.17 748.37 5051.17 1110.39 5413.17 1472.37"/><polygon class="cls-4" points="5413.42 386.4 5776.67 24.37 5413.17 24.37 5051.17 386.4 5052.17 748.37 5413.42 386.4"/><polygon class="cls-4" points="5776.67 1112.2 5414.68 748.37 5414.23 748.37 5052.17 748.37 5411.43 1110.4 5776.67 1472.37 5776.17 1112.65 5776.67 1112.2"/><path d="M9.76,1219.32C126.81,1312,231.67,1368.07,378,1368.07c173.14,0,321.9-75.6,321.9-265.81,0-173.14-129.25-239-302.39-302.39C139,704.76,0,619.41,0,373.11S204.85,0,421.89,0c141.44,0,258.5,43.89,346.28,114.62V270.69C651.12,178,553.57,129.25,421.89,129.25c-163.39,0-275.57,97.54-275.57,246.3,0,139,82.91,207.29,292.64,280.44,268.25,92.67,409.69,192.65,409.69,446.27,0,265.81-209.72,395.06-470.66,395.06-156.07,0-280.44-43.9-368.23-112.17Z"/><path d="M1300.24,1073,1149,1472.93H993L1553.85,24.39h192.66l568.2,1448.55h-161L2002.56,1073ZM1649,146.32,1346.57,946.19h607.22Z"/><path d="M2708.53,1472.93H2557.34V24.39h151.19Z"/><path d="M3121.62,24.39h151.2V1341.25h624.29v131.69H3121.62Z"/><polygon class="cls-4" points="5776.67 1472.37 5774.95 1470.56 5775.27 1112.2 5776.67 1112.2 5776.67 1472.37"/><polygon class="cls-3" points="5414.67 748.37 5776.67 384.68 5775.41 25.64 5412.42 386.4 5052.17 748.37 5414.67 748.37"/><polygon class="cls-3" points="5775.01 382.99 5776.67 382.99 5776.67 24.37 5773.47 27.56 5775.01 382.99"/></svg>
