<svg xmlns="http://www.w3.org/2000/svg" viewBox="0 0 252 144"><defs><style>.cls-1{fill:#73a6fc;}.cls-2{fill:#fff;}.cls-3{fill:#94ed6b;}.cls-4{fill:#e0533b;}.cls-5{fill:#ebb54a;}</style></defs><title>sail_pattern</title><g id="Layer_2" data-name="Layer 2"><path class="cls-1" d="M0,117v-9H9Z"/><polygon class="cls-2" points="9 108 0 117 9 117 18 108 9 108"/><polygon class="cls-1" points="18 108 9 117 18 117 27 108 18 108"/><path class="cls-1" d="M27,117h9v-9Z"/><polygon class="cls-2" points="27 108 18 117 27 117 36 108 27 108"/><path class="cls-3" d="M0,117v9H9Z"/><polygon class="cls-4" points="9 117 0 117 9 126 18 126 9 117"/><polygon class="cls-3" points="18 117 9 117 18 126 27 126 18 117"/><path class="cls-3" d="M36,126v-9H27Z"/><polygon class="cls-4" points="27 117 18 117 27 126 36 126 27 117"/><path class="cls-3" d="M9,144H0v-9Z"/><path class="cls-1" d="M0,135v-9H9Z"/><polygon class="cls-3" points="18 135 9 135 18 144 27 144 18 135"/><polygon class="cls-4" points="9 135 0 135 9 144 18 144 9 135"/><polygon class="cls-1" points="18 126 9 135 18 135 27 126 18 126"/><polygon class="cls-2" points="9 126 0 135 9 135 18 126 9 126"/><path class="cls-3" d="M36,144v-9H27Z"/><polygon class="cls-4" points="27 135 18 135 27 144 36 144 27 135"/><polygon class="cls-2" points="27 126 18 135 27 135 36 126 27 126"/><path class="cls-1" d="M36,126v9H27Z"/><path class="cls-5" d="M0,9H9V0Z"/><path class="cls-1" d="M0,9V0H9Z"/><path class="cls-4" d="M9,9h9V0Z"/><path class="cls-2" d="M9,9V0h9Z"/><path class="cls-5" d="M18,9h9V0Z"/><path class="cls-1" d="M18,9V0h9Z"/><path class="cls-2" d="M27,9V0h9Z"/><path class="cls-4" d="M0,18H9V9Z"/><path class="cls-2" d="M0,18V9H9Z"/><path class="cls-5" d="M9,18h9V9Z"/><path class="cls-1" d="M9,18V9h9Z"/><path class="cls-4" d="M18,18h9V9Z"/><path class="cls-2" d="M18,18V9h9Z"/><path class="cls-5" d="M27,18h9V9Z"/><path class="cls-1" d="M27,18V9h9Z"/><path class="cls-4" d="M0,36H9V27Z"/><path class="cls-2" d="M0,36V27H9Z"/><path class="cls-5" d="M0,27H9V18Z"/><path class="cls-1" d="M0,27V18H9Z"/><path class="cls-2" d="M27,27H18v9Z"/><path class="cls-4" d="M27,27v9H18Z"/><path class="cls-1" d="M27,18H18v9Z"/><path class="cls-5" d="M27,18v9H18Z"/><path class="cls-5" d="M9,36h9V27Z"/><path class="cls-1" d="M9,36V27h9Z"/><path class="cls-4" d="M9,27h9V18Z"/><path class="cls-2" d="M9,27V18h9Z"/><path class="cls-1" d="M36,27H27v9Z"/><path class="cls-2" d="M36,18H27v9Z"/><path class="cls-4" d="M36,18v9H27Z"/><polygon class="cls-5" points="63 45 54 45 45 45 36 45 36 54 45 54 54 54 63 54 72 54 72 45 63 45"/><polygon class="cls-5" points="63 63 54 63 45 63 36 63 36 72 45 72 54 72 63 72 72 72 72 63 63 63"/><polygon class="cls-1" points="63 54 54 54 45 54 36 54 36 63 45 63 54 63 63 63 72 63 72 54 63 54"/><polygon class="cls-3" points="27 36 18 36 9 36 0 36 9 45 18 54 27 45 36 36 27 36"/><polygon class="cls-4" points="9 45 0 36 0 45 0 54 0 63 0 72 9 63 18 54 9 45"/><polygon class="cls-3" points="27 63 18 54 9 63 0 72 9 72 18 72 27 72 36 72 27 63"/><polygon class="cls-4" points="27 45 18 54 27 63 36 72 36 63 36 54 36 45 36 36 27 45"/><polygon class="cls-5" points="207 72 198 72 189 72 180 72 189 81 198 90 207 81 216 72 207 72"/><polygon class="cls-5" points="207 99 198 90 189 99 180 108 189 108 198 108 207 108 216 108 207 99"/><polygon class="cls-1" points="207 81 198 90 207 99 216 108 216 99 216 90 216 81 216 72 207 81"/><polygon class="cls-4" points="63 108 54 108 45 108 36 108 36 117 36 126 36 135 36 144 45 144 54 144 63 144 72 144 72 135 72 126 72 117 72 108 63 108"/><path class="cls-3" d="M36,81V72h9Z"/><polygon class="cls-3" points="54 72 45 72 54 81 63 72 54 72"/><path class="cls-3" d="M72,81V72H63Z"/><polygon class="cls-3" points="54 81 45 81 54 90 63 81 54 81"/><path class="cls-3" d="M45,108H36V99Z"/><polygon class="cls-3" points="36 81 36 90 36 99 45 90 36 81"/><polygon class="cls-3" points="54 99 45 108 54 108 63 108 54 99"/><polygon class="cls-3" points="54 90 45 99 54 99 63 99 54 90"/><polygon class="cls-4" points="45 81 54 81 45 72 36 81 45 90 36 99 45 108 54 99 45 99 54 90 45 81"/><path class="cls-3" d="M72,99v9H63Z"/><polygon class="cls-3" points="63 90 72 99 72 90 72 81 63 90"/><polygon class="cls-4" points="72 81 63 72 54 81 63 81 54 90 63 99 54 99 63 108 72 99 63 90 72 81"/><polygon class="cls-1" points="54 0 45 0 54 9 63 0 54 0"/><polygon class="cls-4" points="45 9 36 0 27 9 36 9 45 18 54 18 45 9"/><polygon class="cls-5" points="45 0 36 0 45 9 54 18 54 9 45 0"/><polygon class="cls-4" points="63 0 54 9 54 18 63 9 72 0 63 0"/><polygon class="cls-5" points="63 9 54 18 63 18 72 9 72 0 63 9"/><polygon class="cls-3" points="36 9 36 18 36 27 45 18 36 9"/><polygon class="cls-1" points="63 36 54 27 45 36 36 36 36 45 45 45 54 45 63 45 72 45 72 36 63 36"/><polygon class="cls-4" points="45 27 36 36 45 36 54 27 54 18 45 27"/><polygon class="cls-5" points="45 18 36 27 27 36 36 36 45 27 54 18 45 18"/><polygon class="cls-5" points="63 27 54 18 54 27 63 36 72 36 63 27"/><polygon class="cls-4" points="63 18 54 18 63 27 72 36 72 27 63 18"/><polygon class="cls-4" points="126 0 117 0 126 9 135 0 126 0"/><path class="cls-1" d="M117,36h-9V27Z"/><polygon class="cls-1" points="135 0 126 9 117 0 108 0 108 9 117 18 126 27 135 18 144 9 144 0 135 0"/><path class="cls-1" d="M144,27v9h-9Z"/><polygon class="cls-4" points="135 18 126 27 117 18 108 9 108 18 108 27 117 36 126 36 135 36 144 27 144 18 144 9 135 18"/><path class="cls-2" d="M72,0V9h9Z"/><path class="cls-4" d="M72,0h9V9Z"/><path class="cls-3" d="M81,9h9V0Z"/><path class="cls-5" d="M81,9V0h9Z"/><path class="cls-5" d="M99,9V0H90Z"/><path class="cls-2" d="M99,9H90V0Z"/><path class="cls-3" d="M99,9h9V0Z"/><path class="cls-4" d="M99,9V0h9Z"/><path class="cls-5" d="M72,18h9V9Z"/><polygon class="cls-3" points="72 9 63 18 72 27 72 18 81 9 72 9"/><path class="cls-4" d="M81,9v9h9Z"/><path class="cls-2" d="M81,9h9v9Z"/><path class="cls-4" d="M90,18h9V9Z"/><path class="cls-3" d="M90,18V9h9Z"/><path class="cls-2" d="M108,18V9H99Z"/><path class="cls-5" d="M108,18H99V9Z"/><path class="cls-5" d="M72,36h9V27Z"/><path class="cls-3" d="M72,36V27h9Z"/><path class="cls-4" d="M81,27V18H72Z"/><path class="cls-2" d="M81,27H72V18Z"/><path class="cls-3" d="M99,27H90v9Z"/><path class="cls-4" d="M99,27v9H90Z"/><path class="cls-5" d="M99,27V18H90Z"/><path class="cls-2" d="M99,27H90V18Z"/><path class="cls-2" d="M90,36V27H81Z"/><path class="cls-4" d="M90,36H81V27Z"/><path class="cls-3" d="M81,27h9V18Z"/><path class="cls-5" d="M81,27V18h9Z"/><path class="cls-2" d="M108,36V27H99Z"/><path class="cls-5" d="M108,36H99V27Z"/><path class="cls-4" d="M108,18H99v9Z"/><path class="cls-3" d="M108,18v9H99Z"/><polygon class="cls-2" points="126 36 117 36 126 45 135 36 126 36"/><polygon class="cls-4" points="117 36 108 36 108 45 117 54 117 45 126 45 117 36"/><path class="cls-5" d="M117,54V45h9Z"/><path class="cls-5" d="M135,54V45h-9Z"/><polygon class="cls-4" points="135 36 126 45 135 45 135 54 144 45 144 36 135 36"/><polygon class="cls-2" points="108 45 108 54 108 63 117 54 108 45"/><path class="cls-5" d="M135,54v9h-9Z"/><polygon class="cls-2" points="126 63 117 72 126 72 135 72 126 63"/><polygon class="cls-4" points="117 63 117 54 108 63 108 72 117 72 126 63 117 63"/><rect class="cls-4" x="119.64" y="47.64" width="12.73" height="12.73" transform="translate(-1.28 104.91) rotate(-45)"/><path class="cls-5" d="M126,63h-9V54Z"/><polygon class="cls-2" points="135 54 144 63 144 54 144 45 135 54"/><polygon class="cls-4" points="135 54 135 63 126 63 135 72 144 72 144 63 135 54"/><polygon class="cls-2" points="99 36 90 36 81 36 72 36 72 45 72 54 72 63 72 72 81 63 90 54 99 45 108 36 99 36"/><polygon class="cls-3" points="99 45 90 54 81 63 72 72 81 72 90 72 99 72 108 72 108 63 108 54 108 45 108 36 99 45"/><polygon class="cls-5" points="135 72 126 72 135 81 144 90 144 81 144 72 135 72"/><polygon class="cls-1" points="117 72 108 72 108 81 108 90 108 99 108 108 117 108 126 108 126 99 126 90 126 81 126 72 117 72"/><polygon class="cls-3" points="135 81 126 72 126 81 126 90 126 99 126 108 135 99 144 90 135 81"/><polygon class="cls-5" points="135 99 126 108 135 108 144 108 144 99 144 90 135 99"/><polygon class="cls-4" points="99 72 90 72 81 72 72 72 72 81 81 81 90 90 99 81 108 81 108 72 99 72"/><polygon class="cls-2" points="81 81 72 81 72 90 72 99 81 99 90 90 81 81"/><polygon class="cls-2" points="99 81 90 90 99 99 108 99 108 90 108 81 99 81"/><rect class="cls-3" x="108" y="108" width="9" height="9"/><path class="cls-4" d="M117,117v-9h9Z"/><path class="cls-4" d="M135,117v-9h-9Z"/><rect class="cls-3" x="135" y="108" width="9" height="9"/><rect class="cls-3" x="119.64" y="110.64" width="12.73" height="12.73" transform="translate(-45.83 123.36) rotate(-45)"/><rect class="cls-3" x="108" y="135" width="9" height="9"/><path class="cls-4" d="M135,135v9h-9Z"/><path class="cls-4" d="M126,144h-9v-9Z"/><rect class="cls-3" x="119.64" y="128.64" width="12.73" height="12.73" transform="translate(-58.55 128.64) rotate(-45)"/><polygon class="cls-4" points="117 117 108 117 108 126 108 135 117 135 126 126 117 117"/><rect class="cls-3" x="135" y="135" width="9" height="9"/><polygon class="cls-4" points="135 117 126 126 135 135 144 135 144 126 144 117 135 117"/><path class="cls-5" d="M72,117v-9h9Z"/><polygon class="cls-4" points="99 99 90 90 81 99 72 99 72 108 81 108 90 108 99 108 90 117 81 126 90 126 99 117 108 108 108 99 99 99"/><polygon class="cls-5" points="99 117 90 126 99 126 108 117 108 108 99 117"/><polygon class="cls-1" points="90 108 81 108 72 117 72 126 72 135 81 126 90 117 99 108 90 108"/><polygon class="cls-4" points="90 126 81 135 72 144 81 144 90 135 99 126 90 126"/><polygon class="cls-5" points="81 126 72 135 72 144 81 135 90 126 81 126"/><path class="cls-5" d="M108,135v9H99Z"/><polygon class="cls-1" points="99 126 90 135 81 144 90 144 99 144 108 135 108 126 108 117 99 126"/><polygon class="cls-5" points="189 0 180 0 180 9 180 18 189 9 198 0 189 0"/><polygon class="cls-5" points="207 0 198 0 207 9 216 18 216 9 216 0 207 0"/><polygon class="cls-1" points="207 27 198 18 189 27 180 36 189 36 198 36 207 36 216 36 207 27"/><polygon class="cls-2" points="207 9 198 0 189 9 180 18 180 27 180 36 189 27 198 18 207 27 216 36 216 27 216 18 207 9"/><polygon class="cls-1" points="243 108 234 108 243 117 252 126 252 117 252 108 243 108"/><polygon class="cls-5" points="243 135 234 144 243 144 252 144 252 135 252 126 243 135"/><polygon class="cls-1" points="225 108 216 108 216 117 225 117 234 117 234 108 225 108"/><polygon class="cls-4" points="243 126 234 126 225 126 216 126 216 135 225 135 234 135 234 144 243 135 252 126 243 126"/><polygon class="cls-2" points="243 117 234 108 234 117 225 117 216 117 216 126 225 126 234 126 243 126 252 126 243 117"/><polygon class="cls-5" points="225 135 216 135 216 144 225 144 234 144 234 135 225 135"/><polygon class="cls-4" points="9 99 0 90 0 99 0 108 9 108 18 108 9 99"/><polygon class="cls-4" points="9 72 0 72 0 81 0 90 9 81 18 72 9 72"/><polygon class="cls-2" points="18 99 9 90 0 90 9 99 18 108 27 108 18 99"/><polygon class="cls-1" points="27 99 18 90 9 90 18 99 27 108 36 108 27 99"/><polygon class="cls-5" points="27 81 18 90 27 99 36 108 36 99 36 90 36 81 36 72 27 81"/><polygon class="cls-1" points="18 72 9 81 0 90 9 90 18 81 27 72 18 72"/><polygon class="cls-2" points="27 72 18 81 9 90 18 90 27 81 36 72 27 72"/><path class="cls-4" d="M144,9h9V0Z"/><path class="cls-3" d="M144,9V0h9Z"/><polygon class="cls-3" points="162 0 153 0 162 9 171 0 162 0"/><path class="cls-3" d="M180,9V0h-9Z"/><path class="cls-4" d="M180,9h-9V0Z"/><path class="cls-4" d="M153,36V27h-9Z"/><path class="cls-3" d="M153,36h-9V27Z"/><polygon class="cls-3" points="144 9 144 18 144 27 153 18 144 9"/><polygon class="cls-3" points="162 27 153 36 162 36 171 36 162 27"/><path class="cls-4" d="M180,27h-9v9Z"/><path class="cls-3" d="M180,27v9h-9Z"/><polygon class="cls-3" points="171 18 180 27 180 18 180 9 171 18"/><polygon class="cls-1" points="180 9 171 9 171 0 162 9 153 0 153 9 144 9 153 18 144 27 153 27 153 36 162 27 171 36 171 27 180 27 171 18 180 9"/><rect class="cls-2" x="180" y="36" width="9" height="9"/><polygon class="cls-3" points="198 36 189 36 189 45 198 45 207 45 207 36 198 36"/><rect class="cls-2" x="207" y="36" width="9" height="9"/><rect class="cls-2" x="180" y="63" width="9" height="9"/><polygon class="cls-3" points="180 45 180 54 180 63 189 63 189 54 189 45 180 45"/><polygon class="cls-3" points="198 63 189 63 189 72 198 72 207 72 207 63 198 63"/><polygon class="cls-4" points="198 45 189 45 189 54 189 63 198 63 207 63 207 54 207 45 198 45"/><rect class="cls-2" x="207" y="63" width="9" height="9"/><polygon class="cls-3" points="207 45 207 54 207 63 216 63 216 54 216 45 207 45"/><polygon class="cls-1" points="153 45 144 36 144 45 144 54 153 54 162 54 153 45"/><polygon class="cls-5" points="153 36 144 36 153 45 162 54 162 45 162 36 153 36"/><polygon class="cls-1" points="171 36 162 36 162 45 162 54 171 45 180 36 171 36"/><polygon class="cls-5" points="171 45 162 54 171 54 180 54 180 45 180 36 171 45"/><polygon class="cls-1" points="153 63 144 72 153 72 162 72 162 63 162 54 153 63"/><polygon class="cls-5" points="153 54 144 54 144 63 144 72 153 63 162 54 153 54"/><polygon class="cls-5" points="171 63 162 54 162 63 162 72 171 72 180 72 171 63"/><polygon class="cls-1" points="171 54 162 54 171 63 180 72 180 63 180 54 171 54"/><polygon class="cls-1" points="144 81 144 90 144 99 153 99 153 90 153 81 144 81"/><polygon class="cls-4" points="171 81 180 81 180 72 171 72 162 72 153 72 144 72 144 81 153 81 153 90 153 99 144 99 144 108 153 108 162 108 171 108 180 108 180 99 171 99 171 90 171 81"/><polygon class="cls-1" points="189 81 180 72 180 81 171 81 171 90 171 99 180 99 180 108 189 99 198 90 189 81"/><polygon class="cls-4" points="207 108 198 108 189 108 180 108 180 117 189 117 198 117 207 117 216 117 216 108 207 108"/><polygon class="cls-4" points="207 135 198 135 189 135 180 135 180 144 189 144 198 144 207 144 216 144 216 135 207 135"/><polygon class="cls-3" points="207 126 216 135 216 126 216 117 207 126"/><polygon class="cls-1" points="216 117 207 117 198 117 189 117 180 117 189 126 180 135 189 135 198 135 207 135 216 135 207 126 216 117"/><polygon class="cls-2" points="171 108 162 108 153 108 144 108 144 117 144 126 153 126 162 126 171 126 180 126 180 117 180 108 171 108"/><polygon class="cls-1" points="153 126 144 126 144 135 144 144 153 144 162 144 162 135 162 126 153 126"/><polygon class="cls-3" points="180 117 180 126 171 126 162 126 162 135 162 144 171 144 180 144 180 135 189 126 180 117"/><polygon class="cls-4" points="216 0 216 9 216 18 216 27 216 36 225 36 225 27 225 18 225 9 225 0 216 0"/><polygon class="cls-4" points="234 0 234 9 234 18 234 27 234 36 243 36 243 27 243 18 243 9 243 0 234 0"/><polygon class="cls-3" points="225 0 225 9 225 18 225 27 225 36 234 36 234 27 234 18 234 9 234 0 225 0"/><polygon class="cls-3" points="243 0 243 9 243 18 243 27 243 36 252 36 252 27 252 18 252 9 252 0 243 0"/><polygon class="cls-5" points="234 36 225 45 234 45 243 45 234 36"/><polygon class="cls-1" points="225 36 216 36 216 45 216 54 225 45 234 36 225 36"/><polygon class="cls-2" points="234 45 225 45 234 54 243 45 234 45"/><polygon class="cls-1" points="243 36 234 36 243 45 252 54 252 45 252 36 243 36"/><polygon class="cls-5" points="216 54 225 63 225 54 225 45 216 54"/><polygon class="cls-4" points="234 54 243 63 243 54 243 45 234 54"/><polygon class="cls-5" points="234 63 225 63 234 72 243 63 234 63"/><polygon class="cls-1" points="225 63 216 54 216 63 216 72 225 72 234 72 225 63"/><polygon class="cls-2" points="234 54 225 63 234 63 243 63 234 54"/><polygon class="cls-4" points="225 45 225 54 225 63 234 54 225 45"/><polygon class="cls-5" points="243 45 243 54 243 63 252 54 243 45"/><polygon class="cls-1" points="243 63 234 72 243 72 252 72 252 63 252 54 243 63"/><polygon class="cls-3" points="225 72 216 72 216 81 216 90 225 90 234 90 234 81 234 72 225 72"/><polygon class="cls-5" points="243 72 234 72 234 81 234 90 243 90 252 90 252 81 252 72 243 72"/><polygon class="cls-5" points="225 90 216 90 216 99 216 108 225 108 234 108 234 99 234 90 225 90"/><polygon class="cls-3" points="243 90 234 90 234 99 234 108 243 108 252 108 252 99 252 90 243 90"/></g></svg>